<?xml version="1.0" standalone="no"?>
<!DOCTYPE svg PUBLIC "-//W3C//DTD SVG 20010904//EN"
 "http://www.w3.org/TR/2001/REC-SVG-20010904/DTD/svg10.dtd">
<svg version="1.0" xmlns="http://www.w3.org/2000/svg"
 width="1080.000000pt" height="1080.000000pt" viewBox="0 0 1080.000000 1080.000000"
 preserveAspectRatio="xMidYMid meet">

<g transform="translate(0.000000,1080.000000) scale(0.100000,-0.100000)"
fill="#000000" stroke="none">
<path d="M5847 9243 c-3 -5 -1 -74 3 -153 5 -80 14 -255 20 -390 15 -361 9
-323 50 -332 47 -10 65 -3 88 35 11 18 58 86 104 153 207 301 281 404 288 404
8 0 20 -134 20 -231 0 -36 7 -110 15 -165 8 -54 15 -156 15 -226 l0 -126 42
-7 c36 -6 43 -4 59 16 30 38 159 225 305 441 52 76 109 160 129 188 19 27 35
54 35 60 0 6 -12 15 -26 21 -33 12 -54 -4 -92 -71 -14 -25 -29 -47 -33 -50 -3
-3 -37 -50 -74 -105 -249 -365 -265 -388 -274 -380 -3 4 -9 75 -12 158 -12
282 -31 582 -38 589 -4 4 -21 10 -38 14 -34 7 -38 2 -153 -166 -19 -28 -51
-73 -70 -100 -19 -27 -51 -72 -70 -100 -90 -130 -131 -187 -152 -215 l-23 -29
-7 59 c-4 33 -13 202 -19 375 -6 173 -14 318 -17 321 -12 12 -70 21 -75 12z"/>
<path d="M4371 9011 c-12 -8 -12 -16 3 -55 24 -64 19 -78 -34 -91 -33 -8 -46
-16 -48 -30 -4 -36 9 -45 54 -33 54 15 70 7 78 -39 4 -21 13 -58 20 -83 8 -25
21 -74 31 -110 42 -162 50 -182 89 -221 38 -39 56 -45 126 -40 43 2 124 38
138 61 8 13 7 23 -5 39 -13 20 -17 21 -32 8 -25 -22 -82 -47 -105 -47 -12 0
-37 10 -55 23 -31 21 -38 35 -68 143 -19 65 -39 144 -44 174 -6 30 -14 59 -20
65 -5 5 -9 21 -9 35 0 24 6 28 50 38 82 19 120 38 120 62 0 29 -27 36 -64 17
-17 -9 -53 -17 -80 -19 -55 -3 -52 -6 -71 85 -4 21 -11 27 -33 27 -15 0 -33
-4 -41 -9z"/>
<path d="M3875 8680 c-32 -17 -70 -40 -83 -53 -27 -24 -72 -108 -72 -132 0
-23 -36 16 -44 49 -7 28 -17 32 -47 16 -27 -15 -24 -40 15 -117 67 -133 206
-425 206 -434 0 -15 18 -19 48 -8 38 13 37 17 -51 199 -98 205 -102 277 -17
373 18 20 40 37 49 37 10 0 26 7 37 15 32 24 119 19 160 -9 20 -13 42 -33 50
-44 15 -22 92 -174 144 -287 18 -38 37 -73 43 -77 10 -6 67 17 67 26 0 3 -11
26 -24 53 -13 26 -53 109 -90 184 -66 137 -121 210 -174 230 -13 5 -54 9 -91
9 -55 0 -78 -5 -126 -30z"/>
<path d="M5232 8502 c-47 -7 -52 -79 -6 -108 21 -14 25 -14 48 3 60 44 32 117
-42 105z"/>
<path d="M7135 8480 c-11 -5 -32 -11 -47 -14 -15 -4 -56 -34 -90 -69 -160
-158 -142 -363 45 -500 49 -36 117 -57 185 -57 63 0 63 0 60 28 -3 25 -7 27
-58 33 -111 12 -201 72 -245 164 -29 63 -31 94 -9 158 15 45 35 59 49 36 4 -6
14 -13 24 -17 14 -6 271 -173 343 -223 51 -36 72 -19 103 86 34 119 -4 241
-100 315 -74 57 -199 86 -260 60z m197 -97 c82 -56 118 -134 104 -227 -14 -88
-15 -88 -176 18 -189 123 -220 145 -220 157 0 18 63 68 99 78 63 18 147 6 193
-26z"/>
<path d="M3225 8279 c-107 -57 -178 -166 -178 -277 -1 -35 4 -67 11 -74 7 -7
12 -22 12 -34 0 -31 70 -120 125 -160 110 -78 265 -67 387 28 48 38 75 76 99
141 28 75 26 89 -12 85 -27 -3 -34 -9 -49 -51 -25 -66 -60 -108 -122 -148 -47
-31 -59 -34 -128 -34 -68 0 -79 3 -122 33 -27 18 -48 36 -48 40 0 13 15 29 35
40 11 6 72 52 135 102 63 51 143 115 178 142 l62 50 -26 31 c-14 18 -49 48
-78 67 -48 33 -56 35 -146 38 -81 2 -101 -1 -135 -19z m230 -70 c38 -22 54
-37 55 -50 0 -3 -57 -50 -126 -105 -70 -54 -147 -116 -172 -136 -25 -20 -50
-34 -55 -31 -33 20 -47 132 -25 205 13 43 103 133 142 142 49 11 142 -2 181
-25z"/>
<path d="M7814 8132 c-95 -92 -235 -227 -313 -300 -78 -74 -141 -139 -141
-146 0 -7 10 -22 23 -34 l23 -22 40 41 39 40 5 -78 c5 -69 10 -84 43 -135 24
-36 59 -71 95 -95 54 -36 62 -38 148 -41 75 -3 99 0 135 16 146 67 238 234
198 361 -22 71 -39 102 -80 146 -52 56 -111 85 -175 85 -27 0 -55 4 -62 8 -14
10 -16 8 136 156 56 54 102 104 102 111 0 6 -10 21 -22 32 l-23 21 -171 -166z
m145 -275 c24 -23 52 -60 62 -82 87 -186 -135 -411 -323 -327 -98 43 -148 116
-148 217 0 130 101 238 240 257 48 7 123 -22 169 -65z"/>
<path d="M2543 8018 c-29 -38 -25 -43 107 -148 113 -90 151 -122 148 -125 -2
-2 -32 -8 -66 -14 -80 -13 -134 -49 -186 -126 -40 -58 -41 -62 -44 -156 -3
-87 -1 -101 21 -145 31 -62 102 -128 170 -160 76 -35 183 -34 252 2 65 34 116
84 146 142 20 38 24 62 24 130 0 45 1 82 3 82 2 0 18 -11 36 -25 18 -14 40
-25 48 -25 20 0 41 25 36 43 -2 8 -61 61 -133 117 -71 56 -152 119 -180 141
-223 179 -352 278 -361 279 -6 0 -16 -6 -21 -12z m320 -345 c45 -12 73 -29
116 -69 79 -74 105 -151 75 -231 -31 -84 -57 -114 -137 -160 -93 -54 -239 -2
-319 114 -28 41 -32 56 -32 113 0 106 63 197 162 232 60 21 64 21 135 1z"/>
<path d="M8590 7180 c-85 -37 -168 -73 -185 -80 -16 -7 -43 -19 -60 -26 -86
-37 -312 -132 -327 -137 -23 -8 -22 -32 2 -82 11 -22 19 -45 20 -51 0 -6 7
-17 15 -24 8 -7 15 -20 15 -30 0 -28 71 -179 114 -244 67 -99 175 -163 294
-173 73 -6 160 9 199 33 12 8 27 14 32 14 6 0 30 14 55 30 84 57 134 135 161
253 17 73 17 81 0 155 -17 73 -87 256 -106 277 -5 5 -9 15 -9 23 0 8 -9 33
-19 56 -11 23 -22 49 -25 59 -3 9 -9 17 -13 16 -4 0 -78 -31 -163 -69z m155
-82 c9 -24 27 -65 40 -93 62 -135 69 -158 69 -250 1 -77 -3 -98 -25 -145 -36
-75 -90 -126 -177 -166 -91 -42 -169 -46 -259 -12 -72 27 -156 109 -195 188
-36 75 -110 251 -106 254 2 2 26 13 53 25 28 12 64 28 80 36 26 12 127 55 425
181 30 13 60 24 66 24 7 0 19 -19 29 -42z"/>
<path d="M2247 7152 c-27 -30 -20 -46 31 -69 213 -99 301 -144 325 -167 35
-32 66 -101 67 -143 0 -48 -42 -134 -83 -170 -62 -54 -130 -55 -242 -3 -33 15
-100 47 -150 70 -107 49 -143 59 -156 39 -22 -35 -9 -50 69 -86 42 -19 111
-51 152 -70 174 -81 236 -91 317 -52 118 57 185 232 133 347 -21 47 -16 51 40
22 l39 -20 17 31 c8 17 12 35 7 39 -4 4 -55 29 -113 55 -58 27 -145 67 -195
90 -102 48 -231 105 -238 105 -2 0 -11 -8 -20 -18z"/>
<path d="M1942 6393 c-5 -21 -13 -56 -17 -78 -10 -66 -13 -68 -85 -51 -35 8
-66 14 -67 12 -2 -2 -6 -20 -10 -39 -6 -39 -9 -37 100 -61 20 -5 27 -12 27
-31 0 -13 -4 -26 -9 -29 -5 -3 -11 -17 -13 -31 -4 -20 -1 -26 18 -31 32 -8 39
-1 54 52 l13 46 46 -7 c25 -4 54 -11 63 -16 9 -5 43 -13 75 -19 32 -5 94 -19
138 -30 135 -37 208 -17 250 66 27 54 33 155 10 174 -27 22 -51 0 -47 -43 4
-46 -20 -101 -52 -122 -34 -22 -97 -16 -251 24 -66 17 -134 31 -151 31 -17 0
-37 6 -43 14 -14 16 -8 84 11 149 10 32 9 40 -3 48 -29 18 -46 9 -57 -28z"/>
<path d="M8564 6211 c-85 -15 -165 -80 -204 -166 -29 -64 -28 -218 1 -283 24
-55 85 -122 110 -122 31 0 34 39 6 68 -52 55 -77 119 -77 197 0 68 3 77 38
130 36 53 104 105 137 105 17 0 44 -139 65 -330 10 -88 27 -169 40 -183 10
-11 102 17 145 43 86 53 138 149 137 250 -1 117 -53 209 -152 268 -39 23 -174
36 -246 23z m180 -72 c23 -6 57 -29 85 -57 40 -40 49 -57 60 -108 19 -88 -2
-156 -64 -213 -46 -42 -90 -65 -105 -56 -5 3 -12 31 -15 63 -4 31 -13 84 -20
117 -7 33 -16 90 -19 127 -3 38 -10 77 -16 87 -24 46 14 62 94 40z"/>
<path d="M2170 5909 c-75 -22 -110 -76 -176 -269 -31 -92 -52 -136 -79 -167
-34 -41 -39 -43 -90 -43 -43 0 -59 5 -85 26 -48 41 -61 76 -62 163 0 98 7 130
43 205 16 32 28 60 27 61 -19 15 -46 22 -59 15 -25 -14 -66 -117 -79 -198 -9
-55 -9 -88 0 -139 11 -67 48 -146 78 -170 34 -26 105 -53 141 -53 38 0 99 26
133 57 19 17 88 151 88 171 0 5 10 41 23 80 56 173 141 231 237 162 35 -25 51
-55 69 -126 20 -82 -16 -226 -76 -311 -29 -40 -29 -51 2 -65 32 -14 45 -4 84
73 98 191 73 431 -53 503 -49 29 -117 39 -166 25z"/>
<path d="M8945 5539 c-27 -11 -59 -23 -70 -28 -11 -5 -47 -19 -80 -31 -33 -12
-67 -26 -76 -30 -9 -5 -52 -21 -95 -35 -44 -15 -83 -31 -89 -35 -5 -4 -21 -11
-35 -15 -14 -3 -49 -16 -78 -28 l-53 -21 3 -44 3 -44 293 -149 c162 -83 296
-148 299 -145 3 2 6 19 6 36 2 31 1 32 -256 162 -248 126 -257 131 -241 149 9
11 26 19 37 19 10 0 33 6 50 14 18 7 57 22 87 33 48 18 156 58 298 112 44 16
62 40 62 82 0 23 -1 22 -65 -2z"/>
<path d="M8495 4896 c-85 -21 -163 -82 -199 -156 -48 -95 -58 -186 -30 -270
17 -51 41 -67 70 -46 14 11 15 16 3 37 -8 14 -13 56 -14 104 0 84 20 140 68
194 51 55 199 95 213 56 3 -8 -1 -34 -10 -57 -9 -24 -20 -63 -26 -88 -5 -25
-25 -103 -45 -175 -55 -202 -54 -182 -4 -195 118 -32 276 35 330 141 10 21 25
66 33 99 12 52 12 68 0 122 -30 128 -107 200 -249 233 -76 17 -74 17 -140 1z
m257 -133 c51 -49 71 -105 66 -187 -7 -111 -57 -172 -166 -206 -82 -26 -95
-16 -86 63 4 34 12 71 18 82 11 21 28 80 51 180 25 108 24 108 59 101 16 -4
43 -18 58 -33z"/>
<path d="M2360 4874 c-69 -17 -505 -101 -625 -121 -102 -17 -119 -27 -109 -68
7 -27 8 -27 61 -21 31 4 63 11 73 16 10 6 30 10 44 10 35 0 275 49 296 60 10
6 38 10 62 10 24 0 68 6 98 14 30 8 75 17 100 21 54 8 111 24 126 36 6 5 9 20
6 34 -4 22 -9 25 -41 24 -20 -1 -61 -8 -91 -15z"/>
<path d="M2445 4618 c-144 -52 -190 -69 -220 -83 -16 -7 -41 -16 -55 -19 -54
-12 -116 -62 -144 -117 -31 -63 -32 -83 -7 -170 22 -78 72 -160 125 -207 l38
-33 24 22 25 23 -44 42 c-73 69 -101 127 -101 209 -1 59 3 75 23 102 26 34
107 71 122 56 5 -5 25 -52 43 -104 70 -199 113 -249 217 -249 49 0 60 4 97 36
90 77 96 156 24 299 -22 44 -52 74 -97 97 l-39 20 37 19 c39 20 47 43 25 71
-12 13 -22 12 -93 -14z m6 -119 c59 -20 107 -75 131 -152 l22 -68 -24 -47
c-19 -35 -34 -49 -65 -60 -35 -13 -44 -12 -78 1 -31 14 -42 27 -71 89 -32 68
-61 145 -73 194 -4 18 2 24 39 37 53 19 76 20 119 6z"/>
<path d="M8124 4249 c-8 -17 -12 -35 -7 -39 4 -5 73 -36 153 -70 80 -34 159
-68 175 -75 85 -39 166 -75 215 -95 30 -13 88 -38 127 -56 40 -19 84 -36 98
-40 30 -8 55 10 55 40 0 17 -18 28 -93 60 -50 22 -119 52 -152 66 -33 15 -161
71 -285 124 -124 53 -233 101 -242 106 -25 14 -26 14 -44 -21z"/>
<path d="M2641 4047 c-6 -6 -11 -21 -11 -33 0 -16 8 -23 30 -27 50 -11 106
-53 141 -109 28 -46 33 -62 34 -118 0 -77 -17 -119 -72 -173 -60 -58 -107 -78
-185 -78 -111 0 -182 52 -229 169 -21 51 -21 57 -7 102 15 47 15 48 -8 59 -48
21 -64 -3 -64 -100 0 -99 85 -230 180 -279 19 -10 60 -21 91 -25 130 -16 250
40 320 149 38 58 39 61 39 152 0 51 -5 105 -11 121 -21 55 -81 134 -122 160
-48 31 -111 45 -126 30z"/>
<path d="M8052 3965 c-105 -46 -179 -139 -204 -258 -10 -46 -9 -65 7 -122 16
-59 26 -76 80 -131 100 -102 206 -134 321 -98 68 21 149 90 192 163 24 40 26
55 26 146 0 92 -2 105 -27 147 -33 57 -96 113 -162 144 -59 28 -178 33 -233 9z
m195 -81 c109 -48 162 -122 163 -228 0 -108 -64 -193 -174 -230 -55 -19 -58
-19 -109 -1 -150 52 -215 138 -205 270 5 53 11 71 39 107 84 108 172 133 286
82z"/>
<path d="M7480 3635 l-24 -26 71 -72 c39 -39 92 -94 117 -122 l47 -50 -53 -6
c-102 -11 -138 -27 -203 -92 -50 -51 -64 -73 -79 -124 -33 -110 -4 -218 82
-306 59 -61 126 -96 199 -103 71 -8 123 6 189 49 93 60 134 127 142 230 l5 68
42 -41 43 -42 21 21 c12 12 21 24 21 29 0 13 -576 612 -589 612 -4 0 -18 -11
-31 -25z m249 -347 c50 -18 73 -34 112 -76 66 -72 85 -150 58 -244 -13 -47
-97 -134 -138 -143 -17 -4 -33 -11 -36 -16 -10 -15 -65 -10 -125 12 -103 38
-180 140 -180 239 1 102 70 196 172 231 67 23 61 23 137 -3z"/>
<path d="M3075 3530 c-3 -5 -50 -45 -103 -89 -53 -43 -111 -92 -129 -107 -17
-16 -72 -62 -122 -103 -77 -63 -89 -76 -80 -92 5 -10 18 -23 28 -29 16 -8 33
3 103 63 47 39 132 111 189 158 57 48 124 104 149 127 45 40 45 40 26 61 -20
22 -51 28 -61 11z"/>
<path d="M3199 3278 c-30 -35 -73 -85 -94 -112 -22 -28 -51 -61 -64 -75 -13
-14 -44 -51 -70 -81 -56 -67 -227 -266 -255 -298 l-20 -23 28 -27 28 -27 55
60 c30 33 72 83 93 110 21 28 51 63 67 78 l30 28 6 -56 c8 -79 61 -162 135
-212 55 -36 61 -38 153 -41 86 -3 101 -1 145 21 196 100 251 342 112 493 -74
80 -171 119 -260 104 -41 -7 -41 -6 0 49 19 25 23 38 15 50 -21 34 -47 23
-104 -41z m179 -127 c142 -49 209 -198 148 -326 -47 -99 -139 -161 -239 -158
-49 1 -67 7 -113 37 -74 50 -105 99 -111 180 -5 54 -2 71 20 117 40 84 83 123
167 152 58 20 65 20 128 -2z"/>
<path d="M2457 3032 c-22 -24 -21 -55 1 -75 27 -25 69 -21 87 7 37 57 -43 118
-88 68z"/>
<path d="M6953 2903 c-76 -36 -138 -95 -168 -159 -29 -61 -26 -74 14 -74 23 0
31 7 46 41 25 54 94 113 161 139 68 25 80 25 152 0 54 -19 117 -70 110 -91 -2
-5 -42 -32 -90 -61 -49 -29 -146 -88 -218 -131 -71 -44 -130 -83 -130 -89 0
-6 30 -40 68 -77 57 -56 77 -69 131 -85 75 -21 119 -17 198 20 70 34 105 64
140 122 26 44 28 54 28 153 -1 95 -3 110 -27 151 -35 59 -92 114 -150 144 -68
35 -191 34 -265 -3z m375 -273 c7 -94 -3 -126 -58 -181 -62 -62 -137 -87 -208
-69 -52 13 -98 41 -124 75 -17 23 -17 24 20 46 20 12 55 32 78 45 22 12 61 35
85 50 117 76 185 112 193 103 5 -5 12 -36 14 -69z"/>
<path d="M3831 2849 c-46 -10 -66 -31 -52 -57 9 -16 16 -18 48 -12 88 16 211
-36 260 -109 13 -19 28 -52 34 -75 12 -43 6 -133 -9 -148 -8 -8 -132 52 -369
178 -46 24 -89 44 -97 44 -37 0 -74 -195 -47 -248 5 -9 15 -33 24 -52 21 -52
59 -92 109 -117 122 -61 155 -65 254 -32 104 35 179 121 210 241 17 65 17 71
0 135 -27 103 -75 163 -174 216 -46 25 -150 45 -191 36z m-66 -299 c6 -4 79
-42 163 -85 83 -43 152 -81 152 -84 0 -4 -17 -23 -37 -43 -74 -71 -160 -86
-251 -43 -68 32 -108 76 -123 138 -10 44 -7 126 6 147 5 8 68 -13 90 -30z"/>
<path d="M6533 2688 c-28 -13 -29 -35 -4 -96 96 -233 116 -320 92 -395 -14
-41 -78 -103 -116 -113 -28 -7 -30 -13 -13 -49 14 -32 32 -32 77 2 54 40 67
56 91 108 l22 49 24 -52 c21 -46 26 -51 46 -43 35 13 33 48 -7 152 -40 102
-68 175 -110 284 -69 180 -63 172 -102 153z"/>
<path d="M4381 2578 c-5 -18 -17 -71 -25 -118 -9 -47 -25 -128 -36 -180 -12
-52 -25 -121 -31 -152 -5 -32 -13 -68 -18 -80 -5 -13 -12 -48 -16 -78 -4 -30
-13 -79 -21 -109 -7 -29 -11 -58 -8 -62 3 -5 20 -9 38 -9 34 0 77 44 354 364
112 129 142 160 151 150 5 -5 23 -52 40 -104 17 -52 35 -104 40 -115 4 -11 20
-57 35 -103 15 -46 30 -91 35 -100 5 -9 25 -69 46 -134 34 -105 40 -117 64
-121 14 -3 30 -1 35 4 5 4 17 50 27 101 22 119 64 323 84 413 18 80 43 205 52
252 5 28 2 34 -20 44 -42 19 -54 7 -67 -73 -6 -40 -15 -87 -20 -103 -5 -17
-14 -57 -19 -90 -10 -67 -71 -348 -77 -354 -7 -8 -14 6 -44 95 -17 49 -34 98
-39 109 -5 11 -23 63 -41 115 -17 52 -45 137 -62 188 -24 72 -35 92 -49 92
-18 0 -116 -95 -179 -175 -17 -22 -69 -80 -114 -130 -45 -49 -99 -108 -119
-130 -30 -33 -37 -36 -37 -20 0 26 24 155 50 270 11 50 25 115 29 145 5 30 16
88 25 129 10 41 13 78 9 82 -4 4 -20 11 -34 14 -24 6 -28 3 -38 -27z"/>
<path d="M5845 2488 c-15 -46 -7 -78 21 -89 54 -20 95 20 75 74 -9 23 -16 27
-51 27 -24 0 -42 -5 -45 -12z"/>
</g>
</svg>
