<svg version="1.1" id="Layer_1" xmlns="http://www.w3.org/2000/svg" xmlns:xlink="http://www.w3.org/1999/xlink" x="0px" y="0px"
	 width="100%" viewBox="0 0 512 512" enable-background="new 0 0 512 512" xml:space="preserve">
<path fill="#000000" opacity="1.000000" stroke="none" 
	d="
M175.000000,1.000000 
	C229.020889,1.000000 283.041779,1.000000 337.882385,1.250721 
	C334.479126,10.272482 330.380280,19.106192 325.993866,27.794743 
	C322.476990,34.760967 318.540924,41.514725 314.956726,48.448505 
	C314.195160,49.921768 314.151703,51.766254 313.788818,53.388668 
	C326.238464,57.666630 338.121155,61.749767 350.400238,65.902710 
	C352.478668,66.447853 354.178223,66.869247 355.839386,67.408798 
	C360.521149,68.929436 365.187103,70.498634 370.046387,72.391350 
	C376.119904,74.505013 382.006409,76.276009 388.089172,78.383339 
	C394.177002,80.516052 400.068542,82.312424 406.151917,84.436722 
	C411.898682,86.452446 417.453674,88.140251 423.385925,89.907623 
	C430.139618,92.007553 436.516022,94.027916 443.087738,96.426880 
	C443.522736,97.890419 443.977570,98.976608 443.971283,100.060120 
	C443.638550,157.359650 443.266815,214.658936 442.552368,272.175842 
	C441.832550,274.803894 441.772827,277.315155 441.034760,279.608124 
	C436.779633,292.828186 429.616455,304.545227 421.582672,316.093719 
	C416.168182,322.455170 411.066589,328.679382 405.643707,335.060547 
	C400.549164,340.200500 395.775879,345.183502 390.656860,350.218811 
	C389.637207,351.162598 389.080170,352.181488 388.270142,352.924591 
	C383.521942,357.280701 378.714661,361.572357 373.617737,366.040924 
	C368.524567,370.425964 363.740906,374.655823 358.595581,378.941528 
	C353.474548,382.632874 348.715240,386.268311 343.643250,390.047241 
	C337.522400,394.443176 331.714142,398.695618 325.593414,403.088776 
	C319.839722,407.114868 314.398529,411.000305 308.600586,414.939240 
	C301.497009,419.384033 294.750183,423.775299 287.638184,428.104584 
	C285.589722,429.142853 283.933319,430.287079 282.218506,431.335876 
	C274.805786,435.869537 267.375977,440.375244 259.708374,444.949036 
	C259.305328,445.058777 259.146362,445.110596 258.723450,445.138428 
	C258.264343,445.397644 258.069214,445.680847 257.504578,445.966370 
	C254.692291,444.746643 252.212540,443.592651 249.813705,442.289673 
	C242.871231,438.518860 235.961273,434.688080 228.898773,430.569244 
	C219.203705,424.160126 209.648422,418.062653 199.937195,411.649902 
	C199.189041,410.751862 198.669022,410.063385 197.993759,409.602173 
	C188.377533,403.034637 178.740311,396.497833 168.944366,389.646637 
	C167.952438,388.826721 167.057312,388.396515 166.306259,387.788330 
	C156.190552,379.596466 146.094894,371.379883 135.683975,363.014648 
	C128.524902,356.349274 121.597511,349.918701 114.855331,343.299469 
	C110.447975,338.972504 106.309166,334.371948 101.909882,329.579285 
	C96.002602,321.148590 89.926781,313.231110 84.547836,304.865509 
	C78.064789,294.782715 71.610001,284.553223 70.746567,271.629944 
	C70.113670,267.706055 69.078217,264.183075 69.073853,260.658844 
	C69.006226,206.122284 69.072395,151.585541 69.485718,97.011078 
	C70.772560,96.650597 71.679375,96.322510 72.590225,96.006035 
	C81.393044,92.947411 90.196526,89.890724 99.374176,86.769394 
	C110.499352,83.081268 121.250175,79.457253 132.381378,75.892784 
	C141.841263,72.579285 150.920807,69.206238 160.402191,65.902069 
	C168.959015,63.422672 177.140106,60.954273 185.259262,58.296642 
	C190.255173,56.661335 195.156433,54.736919 200.598953,52.761261 
	C196.896011,45.931736 193.389343,39.740303 190.144547,33.414539 
	C185.346191,24.060051 180.702301,14.625589 176.079819,5.182508 
	C175.459702,3.915697 175.347427,2.400290 175.000000,1.000000 
M139.476196,207.168991 
	C139.283020,207.436646 139.089828,207.704285 138.284103,208.292160 
	C131.718887,214.247192 125.123314,220.169189 118.597389,226.166962 
	C112.598915,231.680023 106.675446,237.274704 100.543770,242.996887 
	C105.699242,246.741135 110.405212,250.181564 115.134941,253.589020 
	C123.730469,259.781494 132.340118,265.954376 141.266357,272.734558 
	C150.470062,279.511902 159.673767,286.289276 169.211899,293.712921 
	C173.508286,296.672241 177.870499,299.541199 182.086258,302.611267 
	C189.088974,307.710938 195.997620,312.939728 203.238922,318.728180 
	C206.592545,321.080688 209.970108,323.399933 213.294739,325.792725 
	C219.872238,330.526581 226.420471,335.301117 233.320190,340.652985 
	C235.678955,342.395538 238.135880,344.022156 240.369247,345.912811 
	C242.666962,347.857880 244.988571,348.590607 247.188049,346.194031 
	C253.902893,338.877502 260.482178,331.436523 267.728271,323.767456 
	C273.271484,317.890411 278.921417,312.109222 284.319397,306.101685 
	C287.754578,302.278595 290.815887,298.119598 294.762970,294.025940 
	C296.280853,292.415924 297.815094,290.821014 299.313873,289.193390 
	C308.233307,279.507202 317.144501,269.813416 326.691742,259.842896 
	C327.881012,258.307037 328.956329,256.664307 330.278992,255.253525 
	C336.503418,248.614517 342.839386,242.079803 349.039795,235.418747 
	C351.182678,233.116638 353.048615,230.556702 355.677490,227.772537 
	C364.131439,218.553284 372.585388,209.334030 381.666138,199.835571 
	C393.182709,187.305664 404.699249,174.775757 417.048859,161.339539 
	C405.024780,153.971283 393.536835,146.931580 381.728821,139.269684 
	C378.398743,137.309860 375.006744,135.447174 371.750092,133.372116 
	C361.659973,126.942963 361.679962,126.911613 353.283203,136.209961 
	C345.369354,144.457779 337.365723,152.622238 329.588837,160.997238 
	C326.745728,164.059006 324.440979,167.620667 321.179352,171.006516 
	C312.105927,180.964874 303.032501,190.923233 293.341888,201.158676 
	C286.904724,208.069366 280.404938,214.923126 274.052673,221.911026 
	C269.909698,226.468567 265.981018,231.220947 261.259491,236.045593 
	C258.839386,238.709824 256.467834,241.420181 253.989807,244.029388 
	C247.365372,251.004547 240.695251,257.936340 233.751602,264.251770 
	C227.974655,260.092285 222.226593,255.891937 216.411728,251.786163 
	C211.684875,248.448593 206.877945,245.224442 201.824295,241.330276 
	C192.430389,234.319046 183.036469,227.307816 173.035034,220.022614 
	C164.386917,213.455353 155.738785,206.888092 147.035645,200.279068 
	C144.515869,203.018784 142.736298,204.953690 140.460892,207.012924 
	C140.301361,207.072800 140.141815,207.132675 139.476196,207.168991 
z"/>
<path fill="#000000" opacity="1.000000" stroke="none" 
	d="
M513.000000,281.000000 
	C513.000000,358.263397 513.000000,435.526764 513.000000,513.000000 
	C429.312561,513.000000 345.624939,513.000000 261.128113,512.779663 
	C260.559784,512.078125 260.800629,511.596985 261.413513,511.058411 
	C271.204102,506.039185 280.622711,501.077332 290.406158,496.058228 
	C297.548706,492.017334 304.326385,488.033661 311.430664,483.900940 
	C317.856506,480.201447 323.955750,476.650970 330.372620,472.953857 
	C335.460266,469.814880 340.230316,466.822540 345.340454,463.799194 
	C350.819672,460.192383 355.958862,456.616547 361.414581,452.905212 
	C366.502960,449.216370 371.274811,445.662994 376.369141,441.962219 
	C382.164948,437.891602 387.638245,433.968384 393.422913,429.908020 
	C399.100464,425.512451 404.466675,421.254028 409.985107,416.678284 
	C415.126434,412.257812 420.115540,408.154663 425.467682,404.018341 
	C432.566620,397.696564 439.302490,391.407990 446.347473,384.982117 
	C453.809509,377.244598 460.962402,369.644348 468.428162,361.895996 
	C469.008667,361.162476 469.185852,360.511139 469.557465,360.001495 
	C475.371796,352.027466 481.211212,344.071716 487.360413,335.952606 
	C494.603516,325.961365 499.775787,315.220062 504.449890,303.868286 
	C506.879913,296.371948 508.954529,289.049255 511.146240,281.761810 
	C511.267517,281.358490 512.359741,281.247192 513.000000,281.000000 
z"/>
<path fill="#000000" opacity="1.000000" stroke="none" 
	d="
M252.000000,513.000000 
	C168.409637,513.000000 84.819275,513.000000 1.000000,513.000000 
	C1.000000,436.979248 1.000000,360.958282 1.357674,284.212860 
	C2.376390,285.426788 2.946944,287.401825 3.713823,289.297363 
	C7.422665,298.464905 10.547917,307.942261 15.093824,316.678162 
	C20.367020,326.811676 26.904066,336.287506 33.039326,346.366638 
	C44.446045,359.489319 55.705948,372.294189 67.128319,385.401001 
	C69.207024,387.628143 71.006805,389.688629 73.059372,391.455475 
	C82.652420,399.712921 92.315155,407.889404 102.091766,416.407043 
	C107.803337,420.962677 113.324646,425.276031 118.963882,429.429291 
	C124.244987,433.318787 129.650986,437.038727 135.315384,440.986450 
	C145.484238,447.939758 155.339722,454.739868 165.424957,461.812073 
	C167.305984,463.094940 168.954300,464.110626 170.609009,465.115784 
	C179.389587,470.449554 188.171738,475.780701 197.117569,481.417908 
	C207.840317,487.520203 218.398819,493.317383 229.124756,499.421783 
	C236.276733,503.375031 243.280029,506.986145 250.219681,510.715668 
	C250.997635,511.133759 251.415268,512.222351 252.000000,513.000000 
z"/>
<path fill="#1B12FF" opacity="1.000000" stroke="none" 
	d="
M32.892502,346.048828 
	C26.904066,336.287506 20.367020,326.811676 15.093824,316.678162 
	C10.547917,307.942261 7.422665,298.464905 3.713823,289.297363 
	C2.946944,287.401825 2.376390,285.426788 1.357674,283.744202 
	C1.000000,208.979111 1.000000,133.958206 1.390454,58.459526 
	C12.853971,54.376724 23.927032,50.771706 35.000069,47.624733 
	C35.000023,73.711243 35.000015,99.339714 35.000000,124.968178 
	C34.999962,195.862488 35.023979,266.756836 34.910870,337.650970 
	C34.906403,340.451324 33.594963,343.249603 32.892502,346.048828 
z"/>
<path fill="#000000" opacity="1.000000" stroke="none" 
	d="
M345.000000,0.999995 
	C400.890930,1.000000 456.781860,1.000000 513.000000,1.000000 
	C513.000000,19.686287 513.000000,38.374485 512.729126,57.886246 
	C508.970490,57.524944 505.482697,56.340076 501.615356,55.080368 
	C496.491211,53.392647 491.746582,51.779770 486.617004,50.092529 
	C479.812225,47.735943 473.392456,45.453716 466.734192,43.108467 
	C466.495697,43.045444 466.018311,43.169914 465.764618,43.108021 
	C465.341553,43.086388 465.172180,43.126648 464.664856,43.001682 
	C458.253967,40.875595 452.181030,38.914730 445.924225,36.620872 
	C438.494141,33.914284 431.247955,31.540689 423.655640,28.995317 
	C417.887115,27.177801 412.464752,25.532061 406.858917,23.560579 
	C401.130859,21.452440 395.586243,19.670042 389.850098,17.558170 
	C383.786072,15.447318 377.913635,13.665942 371.848511,11.555485 
	C365.136780,9.132287 358.617706,7.038169 351.893829,4.603965 
	C349.459351,3.175915 347.229675,2.087953 345.000000,0.999995 
z"/>
<path fill="#000000" opacity="1.000000" stroke="none" 
	d="
M35.000095,47.166687 
	C23.927032,50.771706 12.853971,54.376724 1.390454,57.990868 
	C1.000000,39.037178 1.000000,20.074354 1.000000,1.000000 
	C56.354179,1.000000 111.708435,1.000000 167.862244,1.287410 
	C165.426086,3.011720 162.190369,4.448620 158.573120,5.944249 
	C149.797836,8.725292 141.404068,11.447607 132.637329,14.111849 
	C129.705231,15.038892 127.162704,16.070055 124.583900,17.000689 
	C116.063469,20.075533 107.529945,23.114069 98.611565,26.108105 
	C97.148140,26.366268 96.054161,26.626638 95.004265,27.008293 
	C85.985443,30.286764 76.974586,33.587154 67.548973,36.930031 
	C64.493378,37.639679 61.798550,38.142963 59.216537,38.990097 
	C51.121544,41.645992 43.069050,44.431431 35.000095,47.166687 
z"/>
<path fill="#41ADFF" opacity="1.000000" stroke="none" 
	d="
M501.994873,55.155212 
	C505.482697,56.340076 508.970490,57.524944 512.729126,58.354904 
	C513.000000,132.020889 513.000000,206.041794 513.000000,280.531311 
	C512.359741,281.247192 511.267517,281.358490 511.146240,281.761810 
	C508.954529,289.049255 506.879913,296.371948 504.098145,303.735962 
	C502.610718,300.699097 501.108032,297.614624 501.102356,294.527405 
	C500.970154,222.537598 500.969666,150.547470 501.043671,78.557495 
	C501.051697,70.756416 501.663269,62.955963 501.994873,55.155212 
z"/>
<path fill="#274AFF" opacity="1.000000" stroke="none" 
	d="
M252.449982,513.000000 
	C251.415268,512.222351 250.997635,511.133759 250.219681,510.715668 
	C243.280029,506.986145 236.276733,503.375031 229.161621,498.994446 
	C229.352005,496.139618 229.972519,494.015717 229.947464,491.899475 
	C229.706665,471.559204 229.357040,451.220215 229.038574,430.880859 
	C235.961273,434.688080 242.871231,438.518860 249.813705,442.289673 
	C252.212540,443.592651 254.692291,444.746643 257.708862,445.859985 
	C258.547974,445.591370 258.782898,445.395081 258.987427,445.162415 
	C259.146362,445.110596 259.305328,445.058777 259.877625,445.302734 
	C260.860504,448.322266 261.896698,451.041473 261.923004,453.770386 
	C262.078644,469.919891 262.047607,486.071960 261.956818,502.222443 
	C261.940094,505.188538 261.360962,508.151428 261.041443,511.115814 
	C260.800629,511.596985 260.559784,512.078125 260.659485,512.779663 
	C258.299988,513.000000 255.599976,513.000000 252.449982,513.000000 
z"/>
<path fill="#2339FF" opacity="1.000000" stroke="none" 
	d="
M158.954636,5.885518 
	C162.190369,4.448620 165.426086,3.011720 168.330902,1.287410 
	C170.041672,1.000000 172.083328,1.000000 174.562500,1.000000 
	C175.347427,2.400290 175.459702,3.915697 176.079819,5.182508 
	C180.702301,14.625589 185.346191,24.060051 190.144547,33.414539 
	C193.389343,39.740303 196.896011,45.931736 200.598953,52.761261 
	C195.156433,54.736919 190.255173,56.661335 185.259262,58.296642 
	C177.140106,60.954273 168.959015,63.422672 160.434967,65.492844 
	C160.377243,62.068962 160.932907,59.125191 160.957336,56.177017 
	C161.058807,43.935085 161.180267,31.687784 160.906250,19.451145 
	C160.804703,14.916975 159.636429,10.406693 158.954636,5.885518 
z"/>
<path fill="#306AFF" opacity="1.000000" stroke="none" 
	d="
M344.562500,0.999995 
	C347.229675,2.087953 349.459351,3.175915 351.531830,4.768406 
	C350.916443,7.267851 350.071625,9.260610 350.060455,11.258021 
	C349.958893,29.449190 350.002563,47.641167 350.003815,65.832909 
	C338.121155,61.749767 326.238464,57.666630 313.788818,53.388668 
	C314.151703,51.766254 314.195160,49.921768 314.956726,48.448505 
	C318.540924,41.514725 322.476990,34.760967 325.993866,27.794743 
	C330.380280,19.106192 334.479126,10.272482 338.351074,1.250721 
	C340.041656,1.000000 342.083344,1.000000 344.562500,0.999995 
z"/>
<path fill="#1D1BFF" opacity="1.000000" stroke="none" 
	d="
M35.000069,47.624733 
	C43.069050,44.431431 51.121544,41.645992 59.216537,38.990097 
	C61.798550,38.142963 64.493378,37.639679 67.557549,37.406311 
	C67.985695,55.492451 67.956390,73.151535 68.048744,90.809982 
	C68.059624,92.891388 68.738403,94.969315 69.107574,97.048851 
	C69.072395,151.585541 69.006226,206.122284 69.073853,260.658844 
	C69.078217,264.183075 70.113670,267.706055 70.381645,271.666931 
	C69.062660,274.998322 67.152527,277.886932 67.134285,280.787415 
	C66.915535,315.556946 66.977348,350.328217 66.965843,385.099060 
	C55.705948,372.294189 44.446045,359.489319 33.039322,346.366638 
	C33.594963,343.249603 34.906403,340.451324 34.910870,337.650970 
	C35.023979,266.756836 34.999962,195.862488 35.000000,124.968178 
	C35.000015,99.339714 35.000023,73.711243 35.000069,47.624733 
z"/>
<path fill="#3C98FF" opacity="1.000000" stroke="none" 
	d="
M446.108124,36.953873 
	C452.181030,38.914730 458.253967,40.875595 464.664215,43.459721 
	C465.001038,147.275238 465.000336,250.467484 465.001495,353.659729 
	C465.001526,355.157471 464.631836,356.808350 465.140594,358.112335 
	C465.715363,359.585541 467.089050,360.747070 468.115295,362.044128 
	C460.962402,369.644348 453.809509,377.244598 446.338898,384.505920 
	C446.014130,381.344177 446.001068,378.521423 446.000946,375.698639 
	C445.999298,343.651428 446.015930,311.604187 445.971527,279.557037 
	C445.967560,276.689514 446.730164,273.349762 442.899170,271.958252 
	C443.266815,214.658936 443.638550,157.359650 443.971283,100.060120 
	C443.977570,98.976608 443.522736,97.890419 443.409973,96.195312 
	C444.024475,93.566528 444.919464,91.551041 444.934967,89.528816 
	C445.053223,74.078156 444.958649,58.625927 445.049316,43.174889 
	C445.061493,41.099216 445.738800,39.027451 446.108124,36.953873 
z"/>
<path fill="#1F23FF" opacity="1.000000" stroke="none" 
	d="
M67.128311,385.401001 
	C66.977348,350.328217 66.915535,315.556946 67.134285,280.787415 
	C67.152527,277.886932 69.062660,274.998322 70.458733,272.067261 
	C71.610001,284.553223 78.064789,294.782715 84.547836,304.865509 
	C89.926781,313.231110 96.002602,321.148590 101.739899,329.932556 
	C101.140579,332.980835 100.010086,335.379669 100.087563,337.738770 
	C100.945175,363.852478 97.830925,390.063568 101.952980,416.094849 
	C92.315155,407.889404 82.652420,399.712921 73.059372,391.455475 
	C71.006805,389.688629 69.207024,387.628143 67.128311,385.401001 
z"/>
<path fill="#00E6A0" opacity="1.000000" stroke="none" 
	d="
M321.890625,170.954300 
	C324.440979,167.620667 326.745728,164.059006 329.588837,160.997238 
	C337.365723,152.622238 345.369354,144.457779 353.835114,136.419418 
	C354.591339,138.753128 354.969757,140.877075 354.973724,143.001694 
	C355.026733,171.372574 355.027344,199.743576 355.041016,228.114532 
	C353.048615,230.556702 351.182678,233.116638 349.039795,235.418747 
	C342.839386,242.079803 336.503418,248.614517 330.278992,255.253525 
	C328.956329,256.664307 327.881012,258.307037 326.138245,259.697113 
	C324.723297,256.455597 323.140900,253.365982 323.114655,250.263184 
	C322.908417,225.896774 323.026855,201.527756 322.951813,177.159836 
	C322.945435,175.090256 322.260406,173.022766 321.890625,170.954300 
z"/>
<path fill="#202BFF" opacity="1.000000" stroke="none" 
	d="
M102.091766,416.407043 
	C97.830925,390.063568 100.945175,363.852478 100.087563,337.738770 
	C100.010086,335.379669 101.140579,332.980835 101.880081,330.247192 
	C106.309166,334.371948 110.447975,338.972504 114.855331,343.299469 
	C121.597511,349.918701 128.524902,356.349274 135.675995,363.430450 
	C135.652191,368.631714 135.066818,373.261230 135.044510,377.893433 
	C134.943420,398.872955 135.001343,419.853271 135.002014,440.833282 
	C129.650986,437.038727 124.244987,433.318787 118.963882,429.429291 
	C113.324646,425.276031 107.803337,420.962677 102.091766,416.407043 
z"/>
<path fill="#00E391" opacity="1.000000" stroke="none" 
	d="
M294.044830,294.111206 
	C290.815887,298.119598 287.754578,302.278595 284.319397,306.101685 
	C278.921417,312.109222 273.271484,317.890411 267.007874,323.883850 
	C262.385834,323.880829 263.020111,320.958191 263.017487,318.558197 
	C262.990326,293.954346 263.035431,269.350372 262.953979,244.746765 
	C262.944183,241.792130 262.304199,238.839569 261.956329,235.886047 
	C265.981018,231.220947 269.909698,226.468567 274.052673,221.911026 
	C280.404938,214.923126 286.904724,208.069366 293.631989,201.447998 
	C293.614807,204.529297 293.048035,207.320557 293.040588,210.113312 
	C292.972015,235.842133 292.973999,261.571289 293.045563,287.300110 
	C293.051880,289.571381 293.696625,291.840881 294.044830,294.111206 
z"/>
<path fill="#00E598" opacity="1.000000" stroke="none" 
	d="
M294.403900,294.068573 
	C293.696625,291.840881 293.051880,289.571381 293.045563,287.300110 
	C292.973999,261.571289 292.972015,235.842133 293.040588,210.113312 
	C293.048035,207.320557 293.614807,204.529297 293.940582,201.309448 
	C303.032501,190.923233 312.105927,180.964874 321.534973,170.980408 
	C322.260406,173.022766 322.945435,175.090256 322.951813,177.159836 
	C323.026855,201.527756 322.908417,225.896774 323.114655,250.263184 
	C323.140900,253.365982 324.723297,256.455597 325.821594,259.836731 
	C317.144501,269.813416 308.233307,279.507202 299.313873,289.193390 
	C297.815094,290.821014 296.280853,292.415924 294.403900,294.068573 
z"/>
<path fill="#00E18A" opacity="1.000000" stroke="none" 
	d="
M261.607910,235.965820 
	C262.304199,238.839569 262.944183,241.792130 262.953979,244.746765 
	C263.035431,269.350372 262.990326,293.954346 263.017487,318.558197 
	C263.020111,320.958191 262.385834,323.880829 266.700806,324.022095 
	C260.482178,331.436523 253.902893,338.877502 247.188049,346.194031 
	C244.988571,348.590607 242.666962,347.857880 240.369247,345.912811 
	C238.135880,344.022156 235.678955,342.395538 233.154968,339.883423 
	C232.993210,316.813934 232.964554,294.513885 233.045822,272.214264 
	C233.054733,269.770111 233.695541,267.328278 234.043274,264.885345 
	C240.695251,257.936340 247.365372,251.004547 253.989807,244.029388 
	C256.467834,241.420181 258.839386,238.709824 261.607910,235.965820 
z"/>
<path fill="#2233FF" opacity="1.000000" stroke="none" 
	d="
M135.315384,440.986450 
	C135.001343,419.853271 134.943420,398.872955 135.044510,377.893433 
	C135.066818,373.261230 135.652191,368.631714 135.986267,363.585205 
	C146.094894,371.379883 156.190552,379.596466 166.306259,387.788330 
	C167.057312,388.396515 167.952438,388.826721 168.697388,389.985016 
	C168.409470,392.585968 168.031372,394.541138 168.026871,396.497192 
	C167.982208,415.883698 168.092712,435.271332 167.875458,454.655518 
	C167.849625,456.960052 166.129791,459.245605 165.195206,461.539978 
	C155.339722,454.739868 145.484238,447.939758 135.315384,440.986450 
z"/>
<path fill="#00DF83" opacity="1.000000" stroke="none" 
	d="
M233.897430,264.568542 
	C233.695541,267.328278 233.054733,269.770111 233.045822,272.214264 
	C232.964554,294.513885 232.993210,316.813934 232.985291,339.586334 
	C226.420471,335.301117 219.872238,330.526581 213.294739,325.792725 
	C209.970108,323.399933 206.592545,321.080688 203.102997,317.981903 
	C202.644699,310.629028 202.102280,304.024353 202.044052,297.415405 
	C201.906631,281.820465 201.994385,266.223450 202.004456,250.627274 
	C202.006317,247.734833 202.070892,244.842407 202.106537,241.949982 
	C206.877945,245.224442 211.684875,248.448593 216.411728,251.786163 
	C222.226593,255.891937 227.974655,260.092285 233.897430,264.568542 
z"/>
<path fill="#00DD7C" opacity="1.000000" stroke="none" 
	d="
M201.965424,241.640137 
	C202.070892,244.842407 202.006317,247.734833 202.004456,250.627274 
	C201.994385,266.223450 201.906631,281.820465 202.044052,297.415405 
	C202.102280,304.024353 202.644699,310.629028 202.956482,317.674866 
	C195.997620,312.939728 189.088974,307.710938 182.086258,302.611267 
	C177.870499,299.541199 173.508286,296.672241 169.366760,293.155396 
	C170.014389,290.408112 170.921997,288.220764 170.934891,286.028168 
	C171.047607,266.865021 170.895218,247.699692 171.118210,228.538452 
	C171.150284,225.781738 172.761932,223.043427 173.642578,220.296600 
	C183.036469,227.307816 192.430389,234.319046 201.965424,241.640137 
z"/>
<path fill="#00DB74" opacity="1.000000" stroke="none" 
	d="
M173.338806,220.159607 
	C172.761932,223.043427 171.150284,225.781738 171.118210,228.538452 
	C170.895218,247.699692 171.047607,266.865021 170.934891,286.028168 
	C170.921997,288.220764 170.014389,290.408112 169.199554,292.832245 
	C159.673767,286.289276 150.470062,279.511902 141.096191,272.041626 
	C140.617340,266.608795 140.004501,261.865662 140.054825,257.129547 
	C140.232880,240.381256 140.637802,223.635391 140.956726,206.888596 
	C142.736298,204.953690 144.515869,203.018784 147.035645,200.279068 
	C155.738785,206.888092 164.386917,213.455353 173.338806,220.159607 
z"/>
<path fill="#2542FF" opacity="1.000000" stroke="none" 
	d="
M228.898773,430.569244 
	C229.357040,451.220215 229.706665,471.559204 229.947464,491.899475 
	C229.972519,494.015717 229.352005,496.139618 228.994171,498.687256 
	C218.398819,493.317383 207.840317,487.520203 197.128204,480.942230 
	C196.983292,460.233246 196.870972,440.303436 197.137985,420.378693 
	C197.175735,417.561493 199.062302,414.769043 200.093140,411.965149 
	C209.648422,418.062653 219.203705,424.160126 228.898773,430.569244 
z"/>
<path fill="#3990FF" opacity="1.000000" stroke="none" 
	d="
M442.552368,272.175842 
	C446.730164,273.349762 445.967560,276.689514 445.971527,279.557037 
	C446.015930,311.604187 445.999298,343.651428 446.000946,375.698639 
	C446.001068,378.521423 446.014130,381.344177 446.029785,384.643188 
	C439.302490,391.407990 432.566620,397.696564 425.221954,403.678802 
	C424.408783,401.410309 424.029663,399.448456 424.026489,397.485992 
	C423.986176,372.551880 424.053680,347.617401 423.908325,322.684052 
	C423.895233,320.437714 422.596985,318.198853 421.895569,315.956512 
	C429.616455,304.545227 436.779633,292.828186 441.034760,279.608124 
	C441.772827,277.315155 441.832550,274.803894 442.552368,272.175842 
z"/>
<path fill="#243BFF" opacity="1.000000" stroke="none" 
	d="
M199.937195,411.649902 
	C199.062302,414.769043 197.175735,417.561493 197.137985,420.378693 
	C196.870972,440.303436 196.983292,460.233246 196.963989,480.637085 
	C188.171738,475.780701 179.389587,470.449554 170.609009,465.115784 
	C168.954300,464.110626 167.305984,463.094940 165.424957,461.812073 
	C166.129791,459.245605 167.849625,456.960052 167.875458,454.655518 
	C168.092712,435.271332 167.982208,415.883698 168.026871,396.497192 
	C168.031372,394.541138 168.409470,392.585968 168.861176,390.291992 
	C178.740311,396.497833 188.377533,403.034637 197.993759,409.602173 
	C198.669022,410.063385 199.189041,410.751862 199.937195,411.649902 
z"/>
<path fill="#00E8A6" opacity="1.000000" stroke="none" 
	d="
M355.359253,227.943542 
	C355.027344,199.743576 355.026733,171.372574 354.973724,143.001694 
	C354.969757,140.877075 354.591339,138.753128 354.141113,136.289612 
	C361.679962,126.911613 361.659973,126.942963 371.750092,133.372116 
	C375.006744,135.447174 378.398743,137.309860 381.723328,139.971649 
	C381.478821,142.461090 381.036133,144.248093 381.032288,146.036057 
	C380.993439,164.062210 381.026489,182.088531 381.039368,200.114792 
	C372.585388,209.334030 364.131439,218.553284 355.359253,227.943542 
z"/>
<path fill="#202BFF" opacity="1.000000" stroke="none" 
	d="
M99.001442,26.166542 
	C107.529945,23.114069 116.063469,20.075533 124.583900,17.000689 
	C127.162704,16.070055 129.705231,15.038892 132.634567,14.569586 
	C133.003128,32.712490 133.042511,50.339790 132.955383,67.966461 
	C132.942413,70.590225 132.333969,73.211060 132.001007,75.833237 
	C121.250175,79.457253 110.499352,83.081268 99.374207,86.311424 
	C99.000412,66.000557 99.000923,46.083549 99.001442,26.166542 
z"/>
<path fill="#2952FF" opacity="1.000000" stroke="none" 
	d="
M261.413483,511.058411 
	C261.360962,508.151428 261.940094,505.188538 261.956818,502.222443 
	C262.047607,486.071960 262.078644,469.919891 261.923004,453.770386 
	C261.896698,451.041473 260.860504,448.322266 260.121643,445.244873 
	C267.375977,440.375244 274.805786,435.869537 282.218506,431.335876 
	C283.933319,430.287079 285.589722,429.142853 287.733521,428.467957 
	C288.795990,431.583466 289.897766,434.269409 289.919922,436.964294 
	C290.081970,456.680359 290.027466,476.398193 290.041290,496.115479 
	C280.622711,501.077332 271.204102,506.039185 261.413483,511.058411 
z"/>
<path fill="#1F23FF" opacity="1.000000" stroke="none" 
	d="
M98.611565,26.108105 
	C99.000923,46.083549 99.000412,66.000557 98.999863,86.375534 
	C90.196526,89.890724 81.393044,92.947411 72.590225,96.006035 
	C71.679375,96.322510 70.772560,96.650597 69.485718,97.011078 
	C68.738403,94.969315 68.059624,92.891388 68.048744,90.809982 
	C67.956390,73.151535 67.985695,55.492451 67.969933,37.357277 
	C76.974586,33.587154 85.985443,30.286764 95.004265,27.008293 
	C96.054161,26.626638 97.148140,26.366268 98.611565,26.108105 
z"/>
<path fill="#2232FF" opacity="1.000000" stroke="none" 
	d="
M132.381378,75.892792 
	C132.333969,73.211060 132.942413,70.590225 132.955383,67.966461 
	C133.042511,50.339790 133.003128,32.712490 133.007523,14.627658 
	C141.404068,11.447607 149.797836,8.725292 158.573120,5.944247 
	C159.636429,10.406693 160.804703,14.916975 160.906250,19.451145 
	C161.180267,31.687784 161.058807,43.935085 160.957336,56.177017 
	C160.932907,59.125191 160.377243,62.068962 160.033112,65.423973 
	C150.920807,69.206238 141.841263,72.579285 132.381378,75.892792 
z"/>
<path fill="#3789FF" opacity="1.000000" stroke="none" 
	d="
M421.582672,316.093719 
	C422.596985,318.198853 423.895233,320.437714 423.908325,322.684052 
	C424.053680,347.617401 423.986176,372.551880 424.026489,397.485992 
	C424.029663,399.448456 424.408783,401.410309 424.858887,403.712006 
	C420.115540,408.154663 415.126434,412.257812 409.625763,416.569977 
	C408.409607,414.737061 407.105804,412.699005 407.092438,410.652527 
	C406.945679,388.193573 407.036041,365.733154 406.954193,343.273499 
	C406.944031,340.482361 406.309967,337.693512 405.964966,334.903595 
	C411.066589,328.679382 416.168182,322.455170 421.582672,316.093719 
z"/>
<path fill="#2D63FF" opacity="1.000000" stroke="none" 
	d="
M330.054993,473.100464 
	C323.955750,476.650970 317.856506,480.201447 311.153381,483.625427 
	C310.033112,481.118713 309.083740,478.741272 309.068298,476.357788 
	C308.935608,455.867737 308.971680,435.376556 308.957336,414.885742 
	C314.398529,411.000305 319.839722,407.114868 325.955048,403.253113 
	C327.086090,405.279266 327.928467,407.279633 327.939728,409.284668 
	C328.042358,427.537170 327.907013,445.791443 328.092438,464.042633 
	C328.123169,467.068268 329.370087,470.081512 330.054993,473.100464 
z"/>
<path fill="#347DFF" opacity="1.000000" stroke="none" 
	d="
M393.111572,430.045166 
	C387.638245,433.968384 382.164948,437.891602 376.204224,441.571045 
	C375.477844,439.035980 375.037781,436.745270 375.031555,434.453339 
	C374.977020,414.377197 375.041168,394.300629 374.952209,374.224731 
	C374.939880,371.443604 374.284790,368.665344 373.927246,365.885742 
	C378.714661,361.572357 383.521942,357.280701 388.270142,352.924591 
	C389.080170,352.181488 389.637207,351.162598 390.689026,350.628113 
	C391.377991,353.949921 391.947754,356.913696 391.958557,359.879547 
	C392.036041,381.190338 391.969391,402.501678 392.048584,423.812439 
	C392.056305,425.891296 392.741089,427.967682 393.111572,430.045166 
z"/>
<path fill="#2B5BFF" opacity="1.000000" stroke="none" 
	d="
M308.600586,414.939240 
	C308.971680,435.376556 308.935608,455.867737 309.068298,476.357788 
	C309.083740,478.741272 310.033112,481.118713 310.826752,483.774475 
	C304.326385,488.033661 297.548706,492.017334 290.406158,496.058228 
	C290.027466,476.398193 290.081970,456.680359 289.919922,436.964294 
	C289.897766,434.269409 288.795990,431.583466 288.098724,428.529968 
	C294.750183,423.775299 301.497009,419.384033 308.600586,414.939240 
z"/>
<path fill="#3990FF" opacity="1.000000" stroke="none" 
	d="
M445.924225,36.620876 
	C445.738800,39.027451 445.061493,41.099216 445.049316,43.174889 
	C444.958649,58.625927 445.053223,74.078156 444.934967,89.528816 
	C444.919464,91.551041 444.024475,93.566528 443.214661,95.816711 
	C436.516022,94.027916 430.139618,92.007553 423.383850,89.449928 
	C423.003113,71.619278 422.959869,54.325687 423.045105,37.032730 
	C423.058044,34.409340 423.667969,31.788893 424.001770,29.167091 
	C431.247955,31.540689 438.494141,33.914284 445.924225,36.620876 
z"/>
<path fill="#3274FF" opacity="1.000000" stroke="none" 
	d="
M350.400238,65.902710 
	C350.002563,47.641167 349.958893,29.449190 350.060455,11.258021 
	C350.071625,9.260610 350.916443,7.267851 351.736633,5.108493 
	C358.617706,7.038169 365.136780,9.132287 371.839386,12.031454 
	C372.014984,30.740784 372.069000,48.645630 371.905640,66.548500 
	C371.888824,68.387970 370.572601,70.215584 369.859314,72.048691 
	C365.187103,70.498634 360.521149,68.929436 355.839386,67.408798 
	C354.178223,66.869247 352.478668,66.447853 350.400238,65.902710 
z"/>
<path fill="#00D96D" opacity="1.000000" stroke="none" 
	d="
M140.708801,206.950760 
	C140.637802,223.635391 140.232880,240.381256 140.054825,257.129547 
	C140.004501,261.865662 140.617340,266.608795 140.934937,271.742065 
	C132.340118,265.954376 123.730469,259.781494 115.134941,253.589020 
	C110.405212,250.181564 105.699242,246.741135 100.543770,242.996887 
	C106.675446,237.274704 112.598915,231.680023 118.597389,226.166962 
	C125.123314,220.169189 131.718887,214.247192 138.788452,208.027069 
	C139.551483,207.607101 139.781311,207.417297 139.982285,207.192551 
	C140.141815,207.132675 140.301361,207.072800 140.708801,206.950760 
z"/>
<path fill="#3683FF" opacity="1.000000" stroke="none" 
	d="
M393.422913,429.908051 
	C392.741089,427.967682 392.056305,425.891296 392.048584,423.812439 
	C391.969391,402.501678 392.036041,381.190338 391.958557,359.879547 
	C391.947754,356.913696 391.377991,353.949921 391.034790,350.575836 
	C395.775879,345.183502 400.549164,340.200500 405.643707,335.060547 
	C406.309967,337.693512 406.944031,340.482361 406.954193,343.273499 
	C407.036041,365.733154 406.945679,388.193573 407.092438,410.652527 
	C407.105804,412.699005 408.409607,414.737061 409.473511,416.887329 
	C404.466675,421.254028 399.100464,425.512451 393.422913,429.908051 
z"/>
<path fill="#306AFF" opacity="1.000000" stroke="none" 
	d="
M330.372620,472.953857 
	C329.370087,470.081512 328.123169,467.068268 328.092438,464.042633 
	C327.907013,445.791443 328.042358,427.537170 327.939728,409.284668 
	C327.928467,407.279633 327.086090,405.279266 326.267548,403.112427 
	C331.714142,398.695618 337.522400,394.443176 343.732025,390.462128 
	C344.422241,393.190369 344.954407,395.646484 344.961792,398.104187 
	C345.027344,420.012695 345.000214,441.921478 345.000366,463.830200 
	C340.230316,466.822540 335.460266,469.814880 330.372620,472.953857 
z"/>
<path fill="#3376FF" opacity="1.000000" stroke="none" 
	d="
M373.617737,366.040924 
	C374.284790,368.665344 374.939880,371.443604 374.952209,374.224731 
	C375.041168,394.300629 374.977020,414.377197 375.031555,434.453339 
	C375.037781,436.745270 375.477844,439.035980 375.881714,441.718445 
	C371.274811,445.662994 366.502960,449.216370 361.092987,452.673859 
	C359.969940,450.396942 359.074890,448.218079 359.063416,446.034546 
	C358.945831,423.652008 358.971527,401.268738 358.957214,378.885651 
	C363.740906,374.655823 368.524567,370.425964 373.617737,366.040924 
z"/>
<path fill="#00EAAD" opacity="1.000000" stroke="none" 
	d="
M381.352722,199.975189 
	C381.026489,182.088531 380.993439,164.062210 381.032288,146.036057 
	C381.036133,144.248093 381.478821,142.461090 381.883362,140.282745 
	C393.536835,146.931580 405.024780,153.971283 417.048859,161.339539 
	C404.699249,174.775757 393.182709,187.305664 381.352722,199.975189 
z"/>
<path fill="#347BFF" opacity="1.000000" stroke="none" 
	d="
M370.046387,72.391357 
	C370.572601,70.215584 371.888824,68.387970 371.905640,66.548500 
	C372.069000,48.645630 372.014984,30.740784 372.032043,12.360534 
	C377.913635,13.665942 383.786072,15.447318 389.840881,18.033869 
	C390.015259,35.399910 390.116241,51.962170 389.904419,68.520432 
	C389.863678,71.704010 388.595032,74.871880 387.892883,78.046997 
	C382.006409,76.276009 376.119904,74.505013 370.046387,72.391357 
z"/>
<path fill="#3170FF" opacity="1.000000" stroke="none" 
	d="
M358.595551,378.941528 
	C358.971527,401.268738 358.945831,423.652008 359.063416,446.034546 
	C359.074890,448.218079 359.969940,450.396942 360.776428,452.809326 
	C355.958862,456.616547 350.819672,460.192383 345.340454,463.799225 
	C345.000214,441.921478 345.027344,420.012695 344.961792,398.104187 
	C344.954407,395.646484 344.422241,393.190369 344.044678,390.318634 
	C348.715240,386.268311 353.474548,382.632874 358.595551,378.941528 
z"/>
<path fill="#3789FF" opacity="1.000000" stroke="none" 
	d="
M423.655640,28.995312 
	C423.667969,31.788893 423.058044,34.409340 423.045105,37.032730 
	C422.959869,54.325687 423.003113,71.619278 423.006561,89.370361 
	C417.453674,88.140251 411.898682,86.452446 406.160767,83.961159 
	C405.985352,65.677971 405.955078,48.198067 406.046356,30.718801 
	C406.058258,28.439638 406.695038,26.163734 407.042389,23.886322 
	C412.464752,25.532061 417.887115,27.177801 423.655640,28.995312 
z"/>
<path fill="#3683FF" opacity="1.000000" stroke="none" 
	d="
M406.858917,23.560581 
	C406.695038,26.163734 406.058258,28.439638 406.046356,30.718801 
	C405.955078,48.198067 405.985352,65.677971 405.968964,83.633240 
	C400.068542,82.312424 394.177002,80.516052 388.089172,78.383347 
	C388.595032,74.871880 389.863678,71.704010 389.904419,68.520432 
	C390.116241,51.962170 390.015259,35.399910 390.032440,18.363342 
	C395.586243,19.670042 401.130859,21.452440 406.858917,23.560581 
z"/>
<path fill="#00DB74" opacity="1.000000" stroke="none" 
	d="
M139.729248,207.180771 
	C139.781311,207.417297 139.551483,207.607101 139.094727,207.866959 
	C139.089828,207.704285 139.283020,207.436646 139.729248,207.180771 
z"/>
<path fill="#2952FF" opacity="1.000000" stroke="none" 
	d="
M258.723450,445.138428 
	C258.782898,445.395081 258.547974,445.591370 258.078369,445.857666 
	C258.069214,445.680847 258.264343,445.397644 258.723450,445.138428 
z"/>
<path fill="#3EA0FF" opacity="1.000000" stroke="none" 
	d="
M468.428192,361.896027 
	C467.089050,360.747070 465.715363,359.585541 465.140594,358.112335 
	C464.631836,356.808350 465.001526,355.157471 465.001495,353.659729 
	C465.000336,250.467484 465.001038,147.275238 465.002197,43.624947 
	C465.172180,43.126648 465.341553,43.086388 465.871887,43.197151 
	C466.232880,43.348171 466.630005,43.390648 466.630005,43.390648 
	C466.630005,43.390648 466.972656,43.171482 466.972656,43.171486 
	C473.392456,45.453716 479.812225,47.735943 486.527161,50.490097 
	C486.548248,53.262512 486.035583,55.562897 486.034546,57.863506 
	C485.994110,148.333908 485.992523,238.804337 486.043884,329.274719 
	C486.045197,331.553925 486.696625,333.832764 487.044861,336.111755 
	C481.211212,344.071716 475.371796,352.027466 469.557465,360.001495 
	C469.185852,360.511139 469.008667,361.162476 468.428192,361.896027 
z"/>
<path fill="#40A7FF" opacity="1.000000" stroke="none" 
	d="
M487.360413,335.952606 
	C486.696625,333.832764 486.045197,331.553925 486.043884,329.274719 
	C485.992523,238.804337 485.994110,148.333908 486.034546,57.863506 
	C486.035583,55.562897 486.548248,53.262512 486.912170,50.564457 
	C491.746582,51.779770 496.491211,53.392647 501.615356,55.080372 
	C501.663269,62.955963 501.051697,70.756416 501.043671,78.557495 
	C500.969666,150.547470 500.970154,222.537598 501.102356,294.527405 
	C501.108032,297.614624 502.610718,300.699097 503.767761,303.917175 
	C499.775787,315.220062 494.603516,325.961365 487.360413,335.952606 
z"/>
<path fill="#3C98FF" opacity="1.000000" stroke="none" 
	d="
M466.734192,43.108463 
	C466.972656,43.171482 466.630005,43.390648 466.630005,43.390648 
	C466.630005,43.390648 466.232880,43.348171 466.125610,43.259041 
	C466.018311,43.169914 466.495697,43.045444 466.734192,43.108463 
z"/>
</svg>