<svg version="1.1" id="Layer_1" xmlns="http://www.w3.org/2000/svg" xmlns:xlink="http://www.w3.org/1999/xlink" x="0px" y="0px"
	 width="100%" viewBox="0 0 512 512" enable-background="new 0 0 512 512" xml:space="preserve">
<path fill="#FEFFFF" opacity="1.000000" stroke="none" 
	d="
M1.000000,59.000000 
	C1.000000,39.680134 1.000000,20.360268 1.000002,1.045849 
	C171.666672,1.051295 342.333344,1.051295 513.000000,1.051295 
	C513.000000,20.089287 513.000000,39.075985 512.706787,58.557808 
	C512.218811,59.076698 512.023987,59.100456 511.472382,59.036198 
	C508.075806,58.012653 505.036011,57.077129 501.671387,55.955872 
	C496.231049,54.181610 491.115509,52.593086 485.704407,50.794250 
	C478.936707,48.456944 472.464661,46.329948 465.668701,44.020748 
	C459.230499,41.882748 453.116180,39.926952 446.694885,37.744858 
	C439.256714,35.116512 432.125610,32.714466 424.649048,30.145878 
	C418.590668,28.143770 412.877655,26.308207 406.868103,24.289364 
	C400.378784,22.120281 394.186005,20.134478 387.678864,17.951454 
	C379.907166,15.255740 372.449890,12.757244 364.648865,10.092252 
	C358.892456,8.223136 353.479828,6.520515 347.835815,4.565173 
	C339.549683,1.415395 339.288818,1.681454 335.709564,9.423782 
	C332.012817,17.420364 327.936401,25.241375 324.028778,33.140541 
	C320.875732,39.514355 317.726807,45.890202 314.283325,52.857403 
	C325.515259,56.530434 336.202484,60.025330 347.177979,63.705296 
	C353.264313,65.770935 359.062378,67.651505 365.151917,69.720551 
	C372.955658,72.301331 380.467896,74.693611 388.244781,77.323639 
	C394.637115,79.548882 400.764832,81.536377 407.175842,83.709412 
	C412.916809,85.632309 418.374481,87.369659 424.096649,89.361740 
	C431.139923,91.806252 437.918701,93.996040 444.788025,96.634811 
	C444.925568,118.407143 444.982300,139.730484 445.017334,161.053848 
	C445.073151,195.039337 445.114532,229.024872 445.061462,263.434265 
	C444.074951,268.578674 443.541595,273.399139 442.237091,278.001038 
	C438.303345,291.878632 431.153900,304.199341 422.826874,316.225281 
	C417.679932,322.559814 412.815643,328.711487 407.646973,335.010559 
	C401.942688,340.796082 396.542816,346.434265 390.826660,352.193359 
	C385.266174,357.182861 380.021912,362.051392 374.468262,367.031006 
	C369.719666,370.908752 365.280518,374.675476 360.513641,378.590942 
	C355.344208,382.581757 350.502533,386.423798 345.326050,390.392273 
	C337.868835,395.722778 330.746460,400.926849 323.280701,406.246094 
	C315.228882,411.540466 307.520508,416.719604 299.478455,421.974976 
	C293.426758,425.688904 287.708740,429.326538 281.644287,433.023132 
	C273.519501,437.689362 265.741180,442.296692 257.591278,446.911499 
	C255.564423,446.248077 253.819199,445.739044 252.269836,444.877686 
	C246.196579,441.501373 240.185135,438.013855 233.934113,434.322083 
	C223.719086,427.908264 213.720688,421.740051 203.506073,415.296631 
	C193.190842,408.080444 183.091797,401.139435 172.756012,393.936157 
	C160.780869,384.402802 149.042465,375.131775 137.130829,365.566986 
	C125.626152,354.218140 114.294685,343.162994 102.852051,331.787354 
	C87.946434,314.388885 75.437195,295.993744 69.480766,273.374573 
	C69.023972,269.474335 68.223816,266.006622 68.218658,262.537750 
	C68.138145,208.378296 68.138489,154.218658 68.268791,100.059402 
	C68.272537,98.500656 69.905678,96.945831 71.125000,95.326675 
	C82.315414,91.547295 93.159927,87.830414 104.396515,84.131424 
	C114.857025,80.721054 124.925446,77.292809 135.370193,73.880829 
	C146.176544,70.297783 156.606567,66.698479 167.424362,63.086700 
	C178.037781,59.680939 188.263443,56.287651 198.935364,52.746277 
	C190.352249,35.486923 182.009109,18.710108 173.475510,1.550321 
	C170.345963,2.779319 167.609329,3.854016 164.492767,4.937688 
	C154.399170,8.270161 144.685486,11.593659 134.586227,14.928835 
	C123.764885,18.481394 113.329124,22.022274 102.499268,25.592283 
	C99.038841,26.719721 95.985947,27.857437 92.903618,28.908855 
	C84.144897,31.896566 75.374153,34.849052 66.232361,37.825104 
	C55.507458,41.335136 45.158348,44.835464 34.407101,48.356415 
	C23.003309,51.918030 12.001655,55.459015 1.000000,59.000000 
M381.579590,140.490005 
	C378.050354,138.304291 374.524933,136.112396 370.991150,133.934067 
	C361.160065,127.873833 361.158691,127.876038 353.055023,137.621689 
	C342.629303,149.047607 332.203583,160.473526 321.164612,172.142273 
	C311.309235,183.046799 301.453888,193.951324 291.031616,205.149597 
	C282.225861,214.836411 273.420135,224.523239 264.013214,234.569016 
	C254.343491,245.049561 244.673767,255.530121 234.367447,265.778809 
	C223.898361,258.227264 213.429276,250.675705 202.563293,242.550446 
	C201.545624,241.820969 200.523300,241.097900 199.511002,240.361038 
	C190.412521,233.738083 181.315796,227.112747 171.838638,219.972519 
	C163.715714,213.960938 155.592789,207.949371 146.339340,201.101120 
	C144.149963,203.686478 142.023651,206.197372 139.254074,208.951080 
	C127.021202,220.099930 114.788322,231.248779 102.012733,242.892242 
	C114.995483,252.255280 127.456970,261.242371 140.269455,270.786652 
	C150.415375,278.122070 160.561310,285.457458 170.996307,293.345032 
	C181.611038,301.075867 192.225769,308.806732 203.210464,317.047882 
	C213.639664,324.643188 224.068848,332.238495 234.870148,340.347382 
	C237.996735,342.675873 241.123306,345.004364 244.494873,347.515320 
	C252.252228,338.856689 259.678375,330.567719 267.719086,321.976013 
	C276.811768,311.980743 285.904480,301.985474 295.607269,291.722687 
	C305.439331,280.888977 315.271393,270.055267 325.716125,258.928650 
	C335.861115,247.774521 346.006104,236.620392 356.764618,225.141693 
	C365.207428,215.841476 373.650269,206.541260 382.705841,196.941711 
	C393.516876,185.226105 404.327942,173.510513 415.564178,161.334167 
	C404.093658,154.397751 393.041321,147.714233 381.579590,140.490005 
z"/>
<path fill="#FEFFFF" opacity="1.000000" stroke="none" 
	d="
M513.000000,263.000000 
	C513.000000,346.261261 513.000000,429.522491 513.000000,513.000000 
	C427.979218,513.000000 342.958282,513.000000 257.469666,512.883545 
	C257.002045,512.767090 257.004974,512.534119 257.306396,512.363159 
	C258.403412,511.733246 259.199005,511.274323 260.339539,510.778320 
	C268.122314,506.805115 275.560089,502.868927 283.349762,498.897705 
	C289.463928,495.560791 295.226227,492.258942 301.335266,488.902039 
	C309.445343,484.204346 317.208710,479.561707 325.310608,474.856201 
	C332.766968,470.198120 339.884796,465.602875 347.338257,460.929810 
	C352.451721,457.577271 357.229553,454.302551 362.340027,450.939026 
	C367.772095,447.192810 372.871460,443.535431 378.297333,439.796570 
	C383.751678,435.816956 388.879517,431.918884 394.331512,427.915039 
	C399.463562,423.955109 404.271454,420.100891 409.403137,416.126892 
	C415.500458,411.052216 421.273987,406.097351 427.365692,401.022278 
	C434.508423,394.391357 441.333038,387.880737 448.469574,381.231628 
	C454.537964,374.773193 460.294373,368.453156 466.351257,361.976105 
	C473.535156,352.595276 480.418640,343.371490 487.563232,333.945374 
	C493.278503,322.853455 498.732697,311.963867 504.427429,300.809601 
	C509.108917,288.437622 511.759735,275.972382 512.373352,263.058594 
	C512.583679,263.059418 513.000000,263.000000 513.000000,263.000000 
z"/>
<path fill="#FEFEFF" opacity="1.000000" stroke="none" 
	d="
M257.004974,512.534119 
	C257.004974,512.534119 257.002045,512.767090 257.001038,512.883545 
	C171.741974,513.000000 86.483955,513.000000 1.000000,513.000000 
	C1.000000,433.312592 1.000000,353.624939 1.350765,273.652588 
	C5.588718,300.285767 17.150761,323.798126 33.678802,345.490906 
	C44.751083,358.207275 55.702518,370.593353 66.758484,383.259369 
	C77.563652,393.030609 88.264290,402.521881 99.111572,412.315491 
	C111.472229,421.843323 123.686256,431.068848 136.074890,440.571960 
	C148.092957,448.791107 159.936401,456.732697 172.004364,464.895020 
	C181.767639,470.863861 191.306427,476.611938 201.061783,482.612000 
	C212.188995,488.893921 223.099625,494.923889 234.239746,501.207275 
	C241.981155,505.151825 249.493057,508.842987 257.004974,512.534119 
z"/>
<path fill="#1B12FF" opacity="1.000000" stroke="none" 
	d="
M33.557953,345.160583 
	C17.150761,323.798126 5.588718,300.285767 1.350765,273.183899 
	C1.000000,201.979111 1.000000,130.958206 1.000000,59.468658 
	C12.001655,55.459015 23.003309,51.918030 34.542446,48.767700 
	C35.719952,52.191029 36.916035,55.223103 36.919250,58.256443 
	C37.018101,151.396500 37.000023,244.536682 36.999729,337.676849 
	C36.999725,338.843170 37.393425,340.225433 36.903934,341.127258 
	C36.086460,342.633362 34.703091,343.832336 33.557953,345.160583 
z"/>
<path fill="#CAE8FF" opacity="1.000000" stroke="none" 
	d="
M513.000000,262.531342 
	C513.000000,263.000000 512.583679,263.059418 512.310547,262.589203 
	C512.024780,196.779282 512.013916,131.439575 511.992340,66.099876 
	C511.991577,63.774643 511.885925,61.449436 511.829163,59.124218 
	C512.023987,59.100456 512.218811,59.076698 512.706787,59.026466 
	C513.000000,126.687561 513.000000,194.375122 513.000000,262.531342 
z"/>
<path fill="#1D1BFF" opacity="1.000000" stroke="none" 
	d="
M33.678802,345.490906 
	C34.703091,343.832336 36.086460,342.633362 36.903934,341.127258 
	C37.393425,340.225433 36.999725,338.843170 36.999729,337.676849 
	C37.000023,244.536682 37.018101,151.396500 36.919250,58.256443 
	C36.916035,55.223103 35.719952,52.191029 34.944584,48.747078 
	C45.158348,44.835464 55.507458,41.335136 66.614960,38.017338 
	C67.915550,40.007717 68.913467,41.811836 68.928307,43.624008 
	C69.053894,58.952644 68.937538,74.283333 69.078773,89.611694 
	C69.096565,91.542580 70.186104,93.463585 70.779091,95.389175 
	C69.905678,96.945831 68.272537,98.500656 68.268791,100.059402 
	C68.138489,154.218658 68.138145,208.378296 68.218658,262.537750 
	C68.223816,266.006622 69.023972,269.474335 69.100830,273.620239 
	C68.498337,276.229523 68.035149,278.160828 68.032310,280.092804 
	C67.986900,310.965515 68.042282,341.838470 67.941177,372.710938 
	C67.929962,376.135132 67.102730,379.556671 66.653946,382.979431 
	C55.702518,370.593353 44.751083,358.207275 33.678802,345.490906 
z"/>
<path fill="#3E99FF" opacity="1.000000" stroke="none" 
	d="
M466.050812,362.133148 
	C460.294373,368.453156 454.537964,374.773193 448.421021,380.774414 
	C447.706970,376.846954 447.054871,373.239044 447.046478,369.629578 
	C446.968018,335.917023 447.028656,302.204163 446.921631,268.491760 
	C446.915833,266.662781 445.774658,264.837433 445.162018,263.010376 
	C445.114532,229.024872 445.073151,195.039337 445.017334,161.053848 
	C444.982300,139.730484 444.925568,118.407143 445.160583,96.431549 
	C445.961700,93.796249 446.917816,91.816216 446.931488,89.829674 
	C447.050842,72.544159 447.001251,55.257488 447.001892,37.971161 
	C453.116180,39.926952 459.230499,41.882748 465.670654,44.474483 
	C466.014618,150.784668 466.032715,256.458893 466.050812,362.133148 
z"/>
<path fill="#3FA0FF" opacity="1.000000" stroke="none" 
	d="
M466.351257,361.976105 
	C466.032715,256.458893 466.014618,150.784668 465.994537,44.656689 
	C472.464661,46.329948 478.936707,48.456944 485.704376,51.262543 
	C486.000000,143.835022 485.991058,235.728897 486.054413,327.622742 
	C486.055908,329.798035 486.868103,331.972717 487.302155,334.147705 
	C480.418640,343.371490 473.535156,352.595276 466.351257,361.976105 
z"/>
<path fill="#41A7FF" opacity="1.000000" stroke="none" 
	d="
M487.563232,333.945374 
	C486.868103,331.972717 486.055908,329.798035 486.054413,327.622742 
	C485.991058,235.728897 486.000000,143.835022 486.000000,51.472851 
	C491.115509,52.593086 496.231049,54.181610 501.672485,56.413925 
	C501.998962,136.208481 501.981995,215.359268 502.091705,294.509888 
	C502.094727,296.698975 503.457947,298.886200 504.186890,301.074280 
	C498.732697,311.963867 493.278503,322.853455 487.563232,333.945374 
z"/>
<path fill="#2023FF" opacity="1.000000" stroke="none" 
	d="
M66.758484,383.259369 
	C67.102730,379.556671 67.929962,376.135132 67.941177,372.710938 
	C68.042282,341.838470 67.986900,310.965515 68.032310,280.092804 
	C68.035149,278.160828 68.498337,276.229523 69.127289,274.052246 
	C75.437195,295.993744 87.946434,314.388885 102.859764,332.200317 
	C102.736382,335.049042 102.268387,337.166260 102.286690,339.279297 
	C102.474892,361.003815 102.875076,382.728058 102.807167,404.451111 
	C102.799255,406.980377 103.509109,411.196625 98.964928,412.013184 
	C88.264290,402.521881 77.563652,393.030609 66.758484,383.259369 
z"/>
<path fill="#01E7A0" opacity="1.000000" stroke="none" 
	d="
M321.777863,171.899445 
	C332.203583,160.473526 342.629303,149.047607 353.515259,137.840729 
	C354.650360,140.909302 355.890228,143.754532 355.911896,146.609055 
	C356.111725,172.893875 356.100708,199.180298 356.151062,225.466263 
	C346.006104,236.620392 335.861115,247.774521 325.237854,258.675446 
	C324.506409,256.476105 324.036713,254.530396 324.032837,252.583771 
	C323.983063,227.695587 324.051117,202.806992 323.903839,177.919586 
	C323.891937,175.908752 322.518585,173.905975 321.777863,171.899445 
z"/>
<path fill="#01E599" opacity="1.000000" stroke="none" 
	d="
M321.471252,172.020859 
	C322.518585,173.905975 323.891937,175.908752 323.903839,177.919586 
	C324.051117,202.806992 323.983063,227.695587 324.032837,252.583771 
	C324.036713,254.530396 324.506409,256.476105 324.931519,258.821899 
	C315.271393,270.055267 305.439331,280.888977 295.248688,291.441772 
	C294.593414,288.877655 294.044434,286.595093 294.038727,284.311127 
	C293.976746,259.528442 294.047302,234.745255 293.896759,209.963333 
	C293.886383,208.256256 292.399017,206.558136 291.598541,204.855835 
	C301.453888,193.951324 311.309235,183.046799 321.471252,172.020859 
z"/>
<path fill="#2334FF" opacity="1.000000" stroke="none" 
	d="
M171.779831,464.674255 
	C159.936401,456.732697 148.092957,448.791107 136.103149,440.083618 
	C135.971191,416.673523 135.955475,394.029236 136.056320,371.385437 
	C136.064529,369.542053 136.869385,367.702209 137.304062,365.860718 
	C149.042465,375.131775 160.780869,384.402802 172.756592,394.390930 
	C172.995956,415.875275 173.037888,436.642731 172.946213,457.409546 
	C172.935532,459.832825 172.186539,462.252777 171.779831,464.674255 
z"/>
<path fill="#01E18B" opacity="1.000000" stroke="none" 
	d="
M235.004044,266.010681 
	C244.673767,255.530121 254.343491,245.049561 264.502747,234.835999 
	C265.328186,237.194733 265.949341,239.285599 265.956085,241.378418 
	C266.027100,263.420441 265.934692,285.463104 266.050232,307.504761 
	C266.076080,312.431152 266.736328,317.354187 267.104523,322.278778 
	C259.678375,330.567719 252.252228,338.856689 244.494873,347.515320 
	C241.123306,345.004364 237.996735,342.675873 234.913940,339.649902 
	C235.304993,337.189484 235.948410,335.427521 235.954391,333.663391 
	C236.024841,312.879913 236.023911,292.095978 235.956787,271.312500 
	C235.951080,269.544220 235.336029,267.777893 235.004044,266.010681 
z"/>
<path fill="#222CFF" opacity="1.000000" stroke="none" 
	d="
M137.130829,365.566986 
	C136.869385,367.702209 136.064529,369.542053 136.056320,371.385437 
	C135.955475,394.029236 135.971191,416.673523 135.928513,439.806030 
	C123.686256,431.068848 111.472229,421.843323 99.111572,412.315491 
	C103.509109,411.196625 102.799255,406.980377 102.807167,404.451111 
	C102.875076,382.728058 102.474892,361.003815 102.286690,339.279297 
	C102.268387,337.166260 102.736382,335.049042 102.970932,332.520813 
	C114.294685,343.162994 125.626152,354.218140 137.130829,365.566986 
z"/>
<path fill="#01E392" opacity="1.000000" stroke="none" 
	d="
M267.411804,322.127380 
	C266.736328,317.354187 266.076080,312.431152 266.050232,307.504761 
	C265.934692,285.463104 266.027100,263.420441 265.956085,241.378418 
	C265.949341,239.285599 265.328186,237.194733 264.803345,234.656509 
	C273.420135,224.523239 282.225861,214.836411 291.315063,205.002716 
	C292.399017,206.558136 293.886383,208.256256 293.896759,209.963333 
	C294.047302,234.745255 293.976746,259.528442 294.038727,284.311127 
	C294.044434,286.595093 294.593414,288.877655 294.943634,291.575562 
	C285.904480,301.985474 276.811768,311.980743 267.411804,322.127380 
z"/>
<path fill="#01DD7C" opacity="1.000000" stroke="none" 
	d="
M202.840485,316.537598 
	C192.225769,308.806732 181.611038,301.075867 170.940231,292.540771 
	C170.922775,270.244873 170.925674,248.753036 171.052887,227.261948 
	C171.066284,225.001770 171.812393,222.745956 172.218552,220.488098 
	C181.315796,227.112747 190.412521,233.738083 199.511002,240.361038 
	C200.523300,241.097900 201.545624,241.820969 202.773270,243.263519 
	C203.322159,256.737061 203.928894,269.497742 203.920273,282.257965 
	C203.912567,293.684753 203.226990,305.111084 202.840485,316.537598 
z"/>
<path fill="#01DF83" opacity="1.000000" stroke="none" 
	d="
M203.025482,316.792725 
	C203.226990,305.111084 203.912567,293.684753 203.920273,282.257965 
	C203.928894,269.497742 203.322159,256.737061 202.971710,243.550369 
	C213.429276,250.675705 223.898361,258.227264 234.685745,265.894745 
	C235.336029,267.777893 235.951080,269.544220 235.956787,271.312500 
	C236.023911,292.095978 236.024841,312.879913 235.954391,333.663391 
	C235.948410,335.427521 235.304993,337.189484 234.727875,339.393127 
	C224.068848,332.238495 213.639664,324.643188 203.025482,316.792725 
z"/>
<path fill="#42ADFF" opacity="1.000000" stroke="none" 
	d="
M504.427429,300.809601 
	C503.457947,298.886200 502.094727,296.698975 502.091705,294.509888 
	C501.981995,215.359268 501.998962,136.208481 501.997314,56.599663 
	C505.036011,57.077129 508.075806,58.012653 511.472382,59.036198 
	C511.885925,61.449436 511.991577,63.774643 511.992340,66.099876 
	C512.013916,131.439575 512.024780,196.779282 512.100220,262.588379 
	C511.759735,275.972382 509.108917,288.437622 504.427429,300.809601 
z"/>
<path fill="#01DB75" opacity="1.000000" stroke="none" 
	d="
M172.028595,220.230316 
	C171.812393,222.745956 171.066284,225.001770 171.052887,227.261948 
	C170.925674,248.753036 170.922775,270.244873 170.795685,292.264679 
	C160.561310,285.457458 150.415375,278.122070 140.117889,270.024048 
	C139.943344,249.077072 139.920349,228.892670 139.897339,208.708252 
	C142.023651,206.197372 144.149963,203.686478 146.339340,201.101120 
	C155.592789,207.949371 163.715714,213.960938 172.028595,220.230316 
z"/>
<path fill="#2743FF" opacity="1.000000" stroke="none" 
	d="
M234.010254,500.953857 
	C223.099625,494.923889 212.188995,488.893921 201.232910,482.200836 
	C201.458313,479.592865 201.957901,477.648773 201.964371,475.703033 
	C202.024612,457.599640 201.947968,439.495544 202.075562,421.392822 
	C202.089264,419.448730 203.148209,417.512024 203.722290,415.571869 
	C213.720688,421.740051 223.719086,427.908264 233.897705,434.774780 
	C234.055359,457.300018 234.032806,479.126923 234.010254,500.953857 
z"/>
<path fill="#3A91FF" opacity="1.000000" stroke="none" 
	d="
M445.061462,263.434265 
	C445.774658,264.837433 446.915833,266.662781 446.921631,268.491760 
	C447.028656,302.204163 446.968018,335.917023 447.046478,369.629578 
	C447.054871,373.239044 447.706970,376.846954 448.109070,380.912842 
	C441.333038,387.880737 434.508423,394.391357 427.304626,400.596680 
	C426.616943,398.009521 426.046661,395.728455 426.040375,393.445770 
	C425.974884,369.662445 425.987396,345.878845 426.018311,322.095398 
	C426.021606,319.550903 426.307556,316.992981 423.109497,316.042389 
	C431.153900,304.199341 438.303345,291.878632 442.237091,278.001038 
	C443.541595,273.399139 444.074951,268.578674 445.061462,263.434265 
z"/>
<path fill="#2023FF" opacity="1.000000" stroke="none" 
	d="
M71.125000,95.326675 
	C70.186104,93.463585 69.096565,91.542580 69.078773,89.611694 
	C68.937538,74.283333 69.053894,58.952644 68.928307,43.624008 
	C68.913467,41.811836 67.915550,40.007717 66.990746,38.007637 
	C75.374153,34.849052 84.144897,31.896566 92.903618,28.908855 
	C95.985947,27.857437 99.038841,26.719721 102.533630,26.046909 
	C103.308060,29.913101 103.929146,33.351902 103.952866,36.794815 
	C104.061531,52.567093 104.002953,68.340523 104.004433,84.113541 
	C93.159927,87.830414 82.315414,91.547295 71.125000,95.326675 
z"/>
<path fill="#253CFF" opacity="1.000000" stroke="none" 
	d="
M203.506073,415.296631 
	C203.148209,417.512024 202.089264,419.448730 202.075562,421.392822 
	C201.947968,439.495544 202.024612,457.599640 201.964371,475.703033 
	C201.957901,477.648773 201.458313,479.592865 201.016327,481.948853 
	C191.306427,476.611938 181.767639,470.863861 172.004333,464.895020 
	C172.186539,462.252777 172.935532,459.832825 172.946213,457.409546 
	C173.037888,436.642731 172.995956,415.875275 172.993347,394.653259 
	C183.091797,401.139435 193.190842,408.080444 203.506073,415.296631 
z"/>
<path fill="#02E8A6" opacity="1.000000" stroke="none" 
	d="
M356.457825,225.303986 
	C356.100708,199.180298 356.111725,172.893875 355.911896,146.609055 
	C355.890228,143.754532 354.650360,140.909302 353.803497,137.644440 
	C361.158691,127.876038 361.160065,127.873833 370.991150,133.934067 
	C374.524933,136.112396 378.050354,138.304291 381.785614,141.187256 
	C381.661102,146.806122 380.998260,151.732162 381.063660,156.648529 
	C381.243652,170.181534 381.728729,183.710480 382.093109,197.241028 
	C373.650269,206.541260 365.207428,215.841476 356.457825,225.303986 
z"/>
<path fill="#2333FF" opacity="1.000000" stroke="none" 
	d="
M167.036591,63.099174 
	C156.606567,66.698479 146.176544,70.297783 135.370926,73.421280 
	C134.987488,53.602699 134.979645,34.259930 134.971817,14.917157 
	C144.685486,11.593659 154.399170,8.270161 164.798599,5.184061 
	C165.989578,7.993133 166.910294,10.561217 166.932541,13.137068 
	C167.076462,29.790159 167.024399,46.444946 167.036591,63.099174 
z"/>
<path fill="#222CFF" opacity="1.000000" stroke="none" 
	d="
M134.586227,14.928834 
	C134.979645,34.259930 134.987488,53.602699 134.994598,73.405014 
	C124.925446,77.292809 114.857025,80.721054 104.396515,84.131416 
	C104.002953,68.340523 104.061531,52.567093 103.952866,36.794815 
	C103.929146,33.351902 103.308060,29.913101 102.927734,26.017782 
	C113.329124,22.022274 123.764885,18.481394 134.586227,14.928834 
z"/>
<path fill="#294BFF" opacity="1.000000" stroke="none" 
	d="
M234.239746,501.207275 
	C234.032806,479.126923 234.055359,457.300018 234.114334,435.020386 
	C240.185135,438.013855 246.196579,441.501373 252.269836,444.877686 
	C253.819199,445.739044 255.564423,446.248077 257.765656,447.265015 
	C258.874451,449.774292 259.911194,451.934326 259.925720,454.101227 
	C260.052521,473.005249 259.996368,491.910461 259.994568,510.815369 
	C259.199005,511.274323 258.403412,511.733246 257.306396,512.363159 
	C249.493057,508.842987 241.981155,505.151825 234.239746,501.207275 
z"/>
<path fill="#2E61FF" opacity="1.000000" stroke="none" 
	d="
M324.972107,474.919067 
	C317.208710,479.561707 309.445343,484.204346 301.337646,488.470398 
	C301.328766,485.307709 301.939514,482.523132 301.954590,479.735291 
	C302.045410,462.919281 302.088593,446.101562 301.902374,429.287109 
	C301.875000,426.816925 300.541382,424.361176 299.812134,421.898743 
	C307.520508,416.719604 315.228882,411.540466 323.458130,406.703064 
	C324.319305,408.969452 324.949615,410.893219 324.955414,412.818848 
	C325.017670,433.518768 324.981415,454.218964 324.972107,474.919067 
z"/>
<path fill="#3069FF" opacity="1.000000" stroke="none" 
	d="
M325.310638,474.856232 
	C324.981415,454.218964 325.017670,433.518768 324.955414,412.818848 
	C324.949615,410.893219 324.319305,408.969452 323.801575,406.587891 
	C330.746460,400.926849 337.868835,395.722778 345.508026,390.836395 
	C346.349884,393.246399 346.950439,395.337799 346.957397,397.431183 
	C347.028076,418.623138 347.001770,439.815460 347.002625,461.007629 
	C339.884796,465.602875 332.766968,470.198120 325.310638,474.856232 
z"/>
<path fill="#2A50FF" opacity="1.000000" stroke="none" 
	d="
M260.339539,510.778320 
	C259.996368,491.910461 260.052521,473.005249 259.925720,454.101227 
	C259.911194,451.934326 258.874451,449.774292 258.137268,447.257538 
	C265.741180,442.296692 273.519501,437.689362 281.697327,433.441193 
	C282.397888,436.079498 282.952148,438.357758 282.960205,440.637970 
	C283.029022,460.069366 282.998596,479.501099 282.997894,498.932739 
	C275.560089,502.868927 268.122314,506.805115 260.339539,510.778320 
z"/>
<path fill="#3889FF" opacity="1.000000" stroke="none" 
	d="
M422.826874,316.225281 
	C426.307556,316.992981 426.021606,319.550903 426.018311,322.095398 
	C425.987396,345.878845 425.974884,369.662445 426.040375,393.445770 
	C426.046661,395.728455 426.616943,398.009521 426.986481,400.716919 
	C421.273987,406.097351 415.500458,411.052216 409.378845,415.639832 
	C409.020477,394.555359 409.087250,373.837708 408.952271,353.121307 
	C408.912598,347.033356 408.300903,340.949097 407.951355,334.863159 
	C412.815643,328.711487 417.679932,322.559814 422.826874,316.225281 
z"/>
<path fill="#357AFF" opacity="1.000000" stroke="none" 
	d="
M364.992584,10.258749 
	C372.449890,12.757244 379.907166,15.255740 387.680481,18.409430 
	C387.991028,38.405048 387.985565,57.745472 387.980133,77.085899 
	C380.467896,74.693611 372.955658,72.301331 365.190063,69.211487 
	C364.955322,49.095531 364.973938,29.677141 364.992584,10.258749 
z"/>
<path fill="#3A91FF" opacity="1.000000" stroke="none" 
	d="
M446.694885,37.744858 
	C447.001251,55.257488 447.050842,72.544159 446.931488,89.829674 
	C446.917816,91.816216 445.961700,93.796249 445.070007,95.982567 
	C437.918701,93.996040 431.139923,91.806252 424.419800,89.075417 
	C424.652313,86.906036 424.974121,85.278000 424.977264,83.649330 
	C425.011719,65.870415 424.996307,48.091408 424.994476,30.312424 
	C432.125610,32.714466 439.256714,35.116512 446.694885,37.744858 
z"/>
<path fill="#2B57FF" opacity="1.000000" stroke="none" 
	d="
M283.349762,498.897705 
	C282.998596,479.501099 283.029022,460.069366 282.960205,440.637970 
	C282.952148,438.357758 282.397888,436.079498 282.043762,433.382263 
	C287.708740,429.326538 293.426758,425.688904 299.478455,421.974976 
	C300.541382,424.361176 301.875000,426.816925 301.902374,429.287109 
	C302.088593,446.101562 302.045410,462.919281 301.954590,479.735291 
	C301.939514,482.523132 301.328766,485.307709 300.990906,488.525452 
	C295.226227,492.258942 289.463928,495.560791 283.349762,498.897705 
z"/>
<path fill="#357DFF" opacity="1.000000" stroke="none" 
	d="
M394.007355,428.020782 
	C388.879517,431.918884 383.751678,435.816956 378.305603,439.336670 
	C377.991577,417.227234 378.010742,395.496216 377.981171,373.765259 
	C377.977478,371.044403 378.670197,367.874969 374.777679,366.919952 
	C380.021912,362.051392 385.266174,357.182861 391.147766,352.367126 
	C392.523407,354.654907 393.887726,356.885498 393.903351,359.125458 
	C394.063538,382.089691 394.004913,405.055450 394.007355,428.020782 
z"/>
<path fill="#3884FF" opacity="1.000000" stroke="none" 
	d="
M394.331512,427.915039 
	C394.004913,405.055450 394.063538,382.089691 393.903351,359.125458 
	C393.887726,356.885498 392.523407,354.654907 391.464050,352.246216 
	C396.542816,346.434265 401.942688,340.796082 407.646973,335.010559 
	C408.300903,340.949097 408.912598,347.033356 408.952271,353.121307 
	C409.087250,373.837708 409.020477,394.555359 409.055054,415.759613 
	C404.271454,420.100891 399.463562,423.955109 394.331512,427.915039 
z"/>
<path fill="#336BFF" opacity="1.000000" stroke="none" 
	d="
M346.889709,63.520222 
	C336.202484,60.025330 325.515259,56.530434 314.283325,52.857403 
	C317.726807,45.890202 320.875732,39.514355 324.028778,33.140541 
	C327.936401,25.241375 332.012817,17.420364 335.709564,9.423782 
	C339.288818,1.681454 339.549683,1.415395 347.814758,5.006592 
	C347.683319,10.985315 347.109222,16.267078 347.045044,21.555027 
	C346.875366,35.541992 346.926483,49.531643 346.889709,63.520222 
z"/>
<path fill="#3477FF" opacity="1.000000" stroke="none" 
	d="
M374.468262,367.031006 
	C378.670197,367.874969 377.977478,371.044403 377.981171,373.765259 
	C378.010742,395.496216 377.991577,417.227234 377.979095,439.418152 
	C372.871460,443.535431 367.772095,447.192810 362.336975,450.468353 
	C362.000854,429.475983 362.050934,408.865234 361.948151,388.255188 
	C361.931824,384.982422 361.227570,381.713104 360.841370,378.442200 
	C365.280518,374.675476 369.719666,370.908752 374.468262,367.031006 
z"/>
<path fill="#03DA6E" opacity="1.000000" stroke="none" 
	d="
M139.575714,208.829681 
	C139.920349,228.892670 139.943344,249.077072 139.942398,269.745483 
	C127.456970,261.242371 114.995483,252.255280 102.012733,242.892242 
	C114.788322,231.248779 127.021202,220.099930 139.575714,208.829681 
z"/>
<path fill="#263BFF" opacity="1.000000" stroke="none" 
	d="
M167.424377,63.086700 
	C167.024399,46.444946 167.076462,29.790159 166.932541,13.137068 
	C166.910294,10.561217 165.989578,7.993133 165.178528,5.175086 
	C167.609329,3.854016 170.345963,2.779319 173.475510,1.550321 
	C182.009109,18.710108 190.352249,35.486923 198.935364,52.746277 
	C188.263443,56.287651 178.037781,59.680939 167.424377,63.086700 
z"/>
<path fill="#3884FF" opacity="1.000000" stroke="none" 
	d="
M388.244781,77.323639 
	C387.985565,57.745472 387.991028,38.405048 387.994873,18.606647 
	C394.186005,20.134478 400.378784,22.120281 406.821777,24.798622 
	C407.012207,44.835400 406.952362,64.179634 406.892517,83.523872 
	C400.764832,81.536377 394.637115,79.548882 388.244781,77.323639 
z"/>
<path fill="#3271FF" opacity="1.000000" stroke="none" 
	d="
M360.513611,378.590942 
	C361.227570,381.713104 361.931824,384.982422 361.948151,388.255188 
	C362.050934,408.865234 362.000854,429.475983 362.004333,450.557190 
	C357.229553,454.302551 352.451721,457.577271 347.338257,460.929840 
	C347.001770,439.815460 347.028076,418.623138 346.957397,397.431183 
	C346.950439,395.337799 346.349884,393.246399 345.842834,390.709961 
	C350.502533,386.423798 355.344208,382.581757 360.513611,378.590942 
z"/>
<path fill="#3889FF" opacity="1.000000" stroke="none" 
	d="
M407.175842,83.709412 
	C406.952362,64.179634 407.012207,44.835400 407.118347,24.981903 
	C412.877655,26.308207 418.590668,28.143770 424.649048,30.145880 
	C424.996307,48.091408 425.011719,65.870415 424.977264,83.649330 
	C424.974121,85.278000 424.652313,86.906036 424.155334,88.820694 
	C418.374481,87.369659 412.916809,85.632309 407.175842,83.709412 
z"/>
<path fill="#3271FF" opacity="1.000000" stroke="none" 
	d="
M347.177979,63.705296 
	C346.926483,49.531643 346.875366,35.541992 347.045044,21.555027 
	C347.109222,16.267078 347.683319,10.985315 348.046082,5.259314 
	C353.479828,6.520515 358.892456,8.223136 364.648865,10.092253 
	C364.973938,29.677141 364.955322,49.095531 364.898560,69.022995 
	C359.062378,67.651505 353.264313,65.770935 347.177979,63.705296 
z"/>
<path fill="#04EAAD" opacity="1.000000" stroke="none" 
	d="
M382.399475,197.091370 
	C381.728729,183.710480 381.243652,170.181534 381.063660,156.648529 
	C380.998260,151.732162 381.661102,146.806122 381.990326,141.457596 
	C393.041321,147.714233 404.093658,154.397751 415.564178,161.334167 
	C404.327942,173.510513 393.516876,185.226105 382.399475,197.091370 
z"/>
</svg>