<?xml version="1.0" standalone="no"?>
<!DOCTYPE svg PUBLIC "-//W3C//DTD SVG 20010904//EN"
 "http://www.w3.org/TR/2001/REC-SVG-20010904/DTD/svg10.dtd">
<svg version="1.0" xmlns="http://www.w3.org/2000/svg"
 width="512.000000pt" height="512.000000pt" viewBox="0 0 512.000000 512.000000"
 preserveAspectRatio="xMidYMid meet">

<g transform="translate(0.000000,512.000000) scale(0.100000,-0.100000)"
fill="#000000" stroke="none">
<path d="M0 2560 l0 -2560 2560 0 2560 0 0 2560 0 2560 -2560 0 -2560 0 0
-2560z m3666 966 c43 -14 102 -41 129 -60 56 -37 145 -120 145 -134 0 -5 -38
-46 -85 -91 l-86 -82 -48 35 c-27 20 -75 48 -107 63 -50 24 -72 28 -145 27
-156 0 -215 -44 -489 -359 -67 -77 -140 -157 -163 -179 -117 -107 -256 -123
-380 -44 -26 17 -118 107 -205 201 -86 94 -246 267 -354 384 -109 117 -198
215 -198 218 0 3 87 5 193 5 l192 0 95 -107 c172 -195 403 -448 416 -456 7 -4
19 -4 27 -1 8 3 97 95 196 205 190 208 263 276 352 327 149 84 343 102 515 48z
m-2282 -53 c3 -21 6 -428 6 -904 0 -781 -2 -867 -16 -873 -9 -3 -78 -6 -155
-6 l-139 0 0 910 0 910 149 0 148 0 7 -37z m1398 -992 c60 -31 110 -79 286
-272 158 -175 218 -221 318 -246 183 -45 361 71 372 243 2 35 5 64 6 64 12 0
247 -85 262 -95 19 -12 20 -19 13 -65 -13 -84 -60 -170 -135 -249 -120 -128
-289 -190 -481 -178 -48 3 -117 14 -153 26 -139 44 -210 102 -493 401 l-138
145 -147 -155 c-80 -85 -203 -212 -272 -282 l-126 -128 -194 0 -193 0 124 128
c68 70 222 231 342 358 219 234 254 266 317 299 58 30 81 34 165 32 61 -2 91
-8 127 -26z"/>
</g>
</svg>
